<svg viewBox="0 0 24 24" fill="currentColor" xmlns="http://www.w3.org/2000/svg">
<path d="M12.375 13.25H9.875C8.14843 13.25 6.75 14.6484 6.75 16.375C6.75 16.7188 7.03125 17 7.375 17H14.875C15.2201 17 15.5 16.7202 15.5 16.375C15.5 14.6484 14.1015 13.25 12.375 13.25ZM11.125 12C12.5058 12 13.625 10.8809 13.625 9.5C13.625 8.11914 12.5058 7 11.125 7C9.74453 7 8.625 8.11914 8.625 9.5C8.625 10.8809 9.7461 12 11.125 12ZM21.125 14.5H20.5V18.25H21.125C21.4701 18.25 21.75 17.9702 21.75 17.625V15.125C21.75 14.7812 21.4687 14.5 21.125 14.5ZM21.125 4.5H20.5V8.25H21.125C21.4687 8.25 21.75 7.96875 21.75 7.625V5.125C21.75 4.77969 21.4687 4.5 21.125 4.5ZM21.125 9.5H20.5V13.25H21.125C21.4687 13.25 21.75 12.9688 21.75 12.625V10.125C21.75 9.78125 21.4687 9.5 21.125 9.5ZM16.75 2H5.5C4.11914 2 3 3.11914 3 4.5V19.5C3 20.8809 4.11914 22 5.5 22H16.75C18.1308 22 19.25 20.8809 19.25 19.5V4.5C19.25 3.11914 18.1289 2 16.75 2ZM17.375 19.5C17.375 19.8452 17.0951 20.125 16.75 20.125H5.5C5.15484 20.125 4.875 19.8452 4.875 19.5V4.5C4.875 4.15477 5.15484 3.875 5.5 3.875H16.75C17.0951 3.875 17.375 4.15477 17.375 4.5V19.5Z"/>
</svg>
