<svg viewBox="0 0 24 24" fill="currentColor" xmlns="http://www.w3.org/2000/svg">
<path d="M18.3797 12.5643L23.8097 17.8307C24.0634 18.0828 24.0634 18.4906 23.8097 18.7427C23.5559 18.9948 23.1455 18.9948 22.8917 18.7427L17.9207 13.9848L11.3059 21.3509C11.0521 21.603 10.6417 21.603 10.3879 21.3509L10.3884 21.3514C10.1346 21.0993 10.1346 20.6916 10.3884 20.4395L17.4617 12.5643C17.7155 12.3121 18.1259 12.3121 18.3797 12.5643Z"/>
<path fill-rule="evenodd" clip-rule="evenodd" d="M11.1639 21.3471C10.9509 21.56 10.6056 21.56 10.3926 21.3471L0.159752 11.1205C-0.0532509 10.9076 -0.0532505 10.5625 0.159752 10.3496C0.372755 10.1367 0.718101 10.1367 0.931104 10.3496L11.1639 20.5762C11.3769 20.7891 11.3769 21.1342 11.1639 21.3471Z"/>
<path fill-rule="evenodd" clip-rule="evenodd" d="M6.41115 2.70354C6.61095 2.47825 6.95567 2.45749 7.1811 2.65717L18.3995 12.5943C18.625 12.794 18.6457 13.1385 18.4459 13.3638C18.2461 13.5891 17.9014 13.6099 17.676 13.4102L6.45755 3.47303C6.23212 3.27335 6.21134 2.92884 6.41115 2.70354Z"/>
</svg>
