<svg viewBox="0 0 24 24" fill="currentColor" xmlns="http://www.w3.org/2000/svg">
<path d="M11.7366 2.1569L10.8527 3.0408C10.6435 3.25 10.6435 3.5892 10.8527 3.7984L17.7782 10.7238L2.5357 10.7238C2.2399 10.7238 2 10.9637 2 11.2596L2 12.5096C2 12.8054 2.2399 13.0453 2.5357 13.0453L17.7782 13.0453L10.8527 19.9707C10.6435 20.1799 10.6435 20.5191 10.8527 20.7284L11.7366 21.6122C11.9458 21.8214 12.285 21.8214 12.4943 21.6122L21.8431 12.2634C22.0523 12.0542 22.0523 11.715 21.8431 11.5057L12.4943 2.1569C12.2851 1.9477 11.9459 1.9477 11.7366 2.1569Z"/>
</svg>
