<svg viewBox="0 0 24 24" fill="currentColor" xmlns="http://www.w3.org/2000/svg">
<path d="M2.27235 12.1479L3.15625 13.0318C3.36545 13.241 3.70465 13.241 3.91385 13.0318L10.8392 6.10636L10.8392 21.3488C10.8392 21.6446 11.0791 21.8845 11.375 21.8845H12.625C12.9209 21.8845 13.1607 21.6446 13.1607 21.3488L13.1607 6.10636L20.0862 13.0318C20.2954 13.241 20.6346 13.241 20.8438 13.0318L21.7276 12.1479C21.9368 11.9387 21.9368 11.5995 21.7277 11.3903L12.3788 2.04145C12.1696 1.83225 11.8304 1.83225 11.6211 2.04145L2.27235 11.3903C2.06315 11.5995 2.06315 11.9386 2.27235 12.1479Z"/>
</svg>
