<svg viewBox="0 0 24 24" fill="currentColor" xmlns="http://www.w3.org/2000/svg">
<path d="M21.7276 11.6212L20.8437 10.7373C20.6345 10.5281 20.2953 10.5281 20.0861 10.7373L13.1607 17.6627L13.1607 2.42025C13.1607 2.12445 12.9208 1.88455 12.6249 1.88455L11.375 1.88455C11.0791 1.88455 10.8393 2.12445 10.8393 2.42025L10.8393 17.6627L3.91382 10.7373C3.70463 10.5281 3.36543 10.5281 3.15619 10.7373L2.27235 11.6212C2.06315 11.8304 2.06315 12.1696 2.27234 12.3788L11.6212 21.7277C11.8304 21.9369 12.1695 21.9369 12.3788 21.7277L21.7276 12.3788C21.9368 12.1696 21.9368 11.8305 21.7276 11.6212Z"/>
</svg>
