<svg viewBox="0 0 24 24" fill="currentColor" xmlns="http://www.w3.org/2000/svg">
<path d="M21.7701 18.5363L3.37773 4.06406C3.1137 3.84844 2.72836 3.8918 2.51713 4.16133L2.13447 4.64922C1.92286 4.91875 1.96572 5.31211 2.22976 5.52773L20.6225 20C20.8865 20.2156 21.2714 20.1719 21.4831 19.9027L21.8657 19.4148C22.0769 19.1453 22.0345 18.752 21.7701 18.5363ZM5.96145 16.375C6.60087 15.5145 7.28086 14.1953 7.54566 12.0555L5.80571 10.6668C5.68058 14.2109 4.41015 15.3809 3.70721 16.152C3.47761 16.4039 3.37583 16.7051 3.37774 17C3.38195 17.6406 3.87443 18.25 4.60607 18.25H15.3075L12.958 16.375H5.96145ZM11.9489 5.75C14.3161 5.75 16.2347 7.70859 16.2347 10.125C16.2347 10.1328 16.2324 10.1398 16.2324 10.1477C16.2332 10.8055 16.2768 11.3887 16.3392 11.934L18.6171 13.752C18.2992 12.8875 18.0684 11.7406 18.0684 10.125C18.0684 7.08984 15.9837 4.66016 13.1727 4.06406V3.25C13.1727 2.55977 12.6247 2 11.9489 2C11.2731 2 10.7252 2.55977 10.7252 3.25V4.06406C9.7295 4.27539 8.83293 4.72578 8.07985 5.34219L9.54046 6.50781C10.227 6.03047 11.0554 5.75 11.9489 5.75ZM11.9489 22C13.3005 22 14.3968 20.8809 14.3968 19.5H9.50105C9.50105 20.8809 10.5974 22 11.9489 22Z"/>
</svg>
