<svg viewBox="0 0 24 24" fill="currentColor" xmlns="http://www.w3.org/2000/svg">
<path d="M12 2C14.0703 2 15.75 3.67912 15.75 5.74872V5.88929C15.75 6.50237 15.2539 6.99829 14.6406 6.99829H9.35937C8.74609 6.99829 8.25 6.50237 8.25 5.88929V5.74872C8.25 3.67912 9.92969 2 12 2ZM3.61719 6.11579C4.10547 5.62767 4.89844 5.62767 5.38672 6.11579L7.88672 8.61493C7.91406 8.64226 7.9375 8.66959 7.96094 8.69694C8.51563 8.41187 9.14844 8.25178 9.81641 8.25178H14.1875C14.8555 8.25178 15.4844 8.41187 16.043 8.69694C16.0664 8.66959 16.0898 8.64226 16.1172 8.61493L18.6172 6.11579C19.1055 5.62767 19.8984 5.62767 20.3867 6.11579C20.875 6.6039 20.875 7.3966 20.3867 7.88471L17.8867 10.3839C17.8594 10.4112 17.832 10.4346 17.8047 10.4581C18.0469 10.9266 18.1992 11.446 18.2383 12.0005H20.75C21.4414 12.0005 22 12.5589 22 13.2501C22 13.9412 21.4414 14.4996 20.75 14.4996H18.25C18.25 15.4602 18.0352 16.3662 17.6484 17.1784C17.7344 17.2292 17.8125 17.2917 17.8828 17.3659L20.3828 19.865C20.8711 20.3531 20.8711 21.1458 20.3828 21.6339C19.8945 22.122 19.1016 22.122 18.6133 21.6339L16.1484 19.1699C15.1914 20.0212 13.9687 20.5835 12.6211 20.7163V11.3718C12.6211 11.0282 12.3398 10.747 11.9961 10.747C11.6523 10.747 11.3711 11.0282 11.3711 11.3718V20.7123C10.0234 20.5796 8.80078 20.0173 7.84375 19.166L5.38281 21.6261C4.89453 22.1142 4.10156 22.1142 3.61328 21.6261C3.125 21.138 3.125 20.3453 3.61328 19.8572L6.11328 17.3581C6.1875 17.2839 6.26563 17.2253 6.34766 17.1706C5.96484 16.3623 5.75 15.4563 5.75 14.4957H3.25C2.55859 14.4957 2 13.9373 2 13.2462C2 12.555 2.55859 11.9966 3.25 11.9966H5.76172C5.80469 11.446 5.95703 10.9227 6.19531 10.4541C6.16797 10.4307 6.14063 10.4073 6.11328 10.38L3.61328 7.8808C3.125 7.39269 3.125 6.59999 3.61328 6.11188L3.61719 6.11579Z"/>
</svg>
