<svg viewBox="0 0 24 24" fill="currentColor" xmlns="http://www.w3.org/2000/svg">
<path d="M14.3004 5.65887L14.9685 7.6629L11.3157 11.3157C10.9375 11.6939 10.9375 12.306 11.3157 12.6843C11.6936 13.0621 12.306 13.0625 12.6843 12.6843L16.3371 9.03145L18.3411 9.6996C18.6391 9.79879 18.9673 9.72137 19.1895 9.4996L21.7569 6.93226C22.1923 6.49677 22.0173 5.75484 21.4327 5.55968L19.1883 4.81169L18.4403 2.56774C18.2456 1.98306 17.5036 1.80807 17.0677 2.24355L14.5008 4.81048C14.392 4.91939 14.3156 5.05642 14.2802 5.20625C14.2449 5.35607 14.2518 5.51279 14.3004 5.65887ZM12 7.80645C12.3089 7.80645 12.6081 7.84516 12.898 7.90887L13.4923 7.31452L13.0762 6.06653C13.0665 6.0371 13.0681 6.00726 13.0597 5.97742C12.7141 5.91694 12.3629 5.87056 11.9996 5.87056C8.61169 5.87056 5.87056 8.6125 5.87056 11.9996C5.87056 15.3875 8.6125 18.1286 11.9996 18.1286C15.3875 18.1286 18.1286 15.3867 18.1286 11.9996C18.1286 11.6355 18.0823 11.2839 18.0218 10.9375C17.9927 10.929 17.9617 10.9327 17.9331 10.923L16.6855 10.5073L16.0911 11.1016C16.1548 11.3915 16.1931 11.6907 16.1931 11.9996C16.1931 14.3121 14.3121 16.1931 11.9996 16.1931C9.6871 16.1931 7.80605 14.3121 7.80605 11.9996C7.80605 9.6871 9.6875 7.80645 12 7.80645ZM21.5335 8.97984L20.102 10.4113C20.048 10.4653 19.9863 10.5073 19.9278 10.5544C20.0133 11.0242 20.0645 11.5056 20.0645 11.9996C20.0645 16.4464 16.4468 20.0641 12 20.0641C7.55323 20.0641 3.93548 16.4464 3.93548 11.9996C3.93548 7.55282 7.55323 3.93508 12 3.93508C12.4976 3.93508 12.9827 3.98669 13.4556 4.07339C13.5024 4.01613 13.5355 3.95081 13.5887 3.89758L15.0202 2.46613C14.0432 2.15704 13.0246 1.99983 12 2C6.47702 2 2 6.47702 2 12C2 17.523 6.47702 22 12 22C17.523 22 22 17.523 22 12C22 10.9472 21.8351 9.93306 21.5335 8.97984Z"/>
</svg>
