<svg viewBox="0 0 24 24" fill="currentColor" xmlns="http://www.w3.org/2000/svg">
<path fill-rule="evenodd" clip-rule="evenodd" d="M6.85312 2.00156C10.2807 1.99739 13.7082 2.00156 17.1358 2.01407C18.3599 2.01853 19.5 2.98259 19.5 4.18394V19.6297C19.5 21.2049 18.8117 21.9926 17.1358 21.9926C17.1358 21.9926 10.2807 22.0093 6.85312 21.9926C5.40074 21.9926 4.51388 21.0048 4.51388 19.6297C4.48914 14.4533 4.49747 9.27739 4.5389 4.10193C4.54931 2.80135 5.56666 2.00156 6.85312 2.00156ZM6.9035 3.90507C10.3405 3.89274 13.7764 3.90524 17.2112 3.94258C17.5107 3.94258 17.649 4.10053 17.649 4.40516C17.6615 5.28025 17.6657 6.15541 17.6615 7.03061H6.40313C6.39895 6.15541 6.41564 4.40516 6.41564 4.40516C6.41564 4.10053 6.60173 3.90507 6.9035 3.90507ZM17.6615 8.90175H6.40313C6.39895 12.4691 6.41564 19.6537 6.41564 19.6537C6.41564 19.9546 6.60173 20.1412 6.9035 20.1412H17.0611C17.4106 20.1412 17.649 19.9546 17.649 19.6037C17.649 19.6037 17.6657 12.4691 17.6615 8.90175ZM16.4098 17.9541C16.4098 18.4789 15.9841 18.9043 15.459 18.9043C14.9339 18.9043 14.5082 18.4789 14.5082 17.9541C14.5082 17.4292 14.9339 17.0038 15.459 17.0038C15.9841 17.0038 16.4098 17.4292 16.4098 17.9541ZM8.5533 12.0025C9.0784 12.0025 9.50407 11.5771 9.50407 11.0523C9.50407 10.5275 9.0784 10.1021 8.5533 10.1021C8.0282 10.1021 7.60252 10.5275 7.60252 11.0523C7.60252 11.5771 8.0282 12.0025 8.5533 12.0025ZM12.9069 14.4532C12.9069 14.978 12.4812 15.4034 11.9561 15.4034C11.431 15.4034 11.0053 14.978 11.0053 14.4532C11.0053 13.9283 11.431 13.5029 11.9561 13.5029C12.4812 13.5029 12.9069 13.9283 12.9069 14.4532ZM8.5533 15.4034C9.0784 15.4034 9.50407 14.978 9.50407 14.4532C9.50407 13.9283 9.0784 13.5029 8.5533 13.5029C8.0282 13.5029 7.60252 13.9283 7.60252 14.4532C7.60252 14.978 8.0282 15.4034 8.5533 15.4034ZM12.9069 11.0523C12.9069 11.5771 12.4812 12.0025 11.9561 12.0025C11.431 12.0025 11.0053 11.5771 11.0053 11.0523C11.0053 10.5275 11.431 10.1021 11.9561 10.1021C12.4812 10.1021 12.9069 10.5275 12.9069 11.0523ZM15.459 12.0025C15.9841 12.0025 16.4098 11.5771 16.4098 11.0523C16.4098 10.5275 15.9841 10.1021 15.459 10.1021C14.9339 10.1021 14.5082 10.5275 14.5082 11.0523C14.5082 11.5771 14.9339 12.0025 15.459 12.0025ZM16.4098 14.4532C16.4098 14.978 15.9841 15.4034 15.459 15.4034C14.9339 15.4034 14.5082 14.978 14.5082 14.4532C14.5082 13.9283 14.9339 13.5029 15.459 13.5029C15.9841 13.5029 16.4098 13.9283 16.4098 14.4532ZM7.70264 17.9541C7.70264 18.4789 8.12831 18.9043 8.65343 18.9043H11.6559C12.181 18.9043 12.6066 18.4789 12.6066 17.9541C12.6066 17.4292 12.181 17.0038 11.6559 17.0038H8.65343C8.12831 17.0038 7.70264 17.4292 7.70264 17.9541Z"/>
</svg>
