<svg viewBox="0 0 24 24" fill="currentColor" xmlns="http://www.w3.org/2000/svg">
<path fill-rule="evenodd" clip-rule="evenodd" d="M6.9 2.6C6.9 2.26863 7.16863 2 7.5 2H8.8C9.13137 2 9.4 2.26863 9.4 2.6V4.5H14.6V2.6C14.6 2.26863 14.8686 2 15.2 2H16.5C16.8314 2 17.1 2.26863 17.1 2.6V4.5H19C20.1046 4.5 21 5.39543 21 6.5V20C21 21.1046 20.1046 22 19 22H5C3.89543 22 3 21.1046 3 20V6.5C3 5.39543 3.89543 4.5 5 4.5H6.9V2.6ZM5.5 9.5C4.94772 9.5 4.5 9.94772 4.5 10.5V19.5C4.5 20.0523 4.94772 20.5 5.5 20.5H18.5C19.0523 20.5 19.5 20.0523 19.5 19.5V10.5C19.5 9.94772 19.0523 9.5 18.5 9.5H5.5Z" />
<path d="M6.1 11.2C5.82386 11.2 5.6 11.4239 5.6 11.7V13.2C5.6 13.4761 5.82386 13.7 6.1 13.7H7.6C7.87614 13.7 8.1 13.4761 8.1 13.2V11.7C8.1 11.4239 7.87614 11.2 7.6 11.2H6.1Z" />
<path d="M6.1 16.3C5.82386 16.3 5.6 16.5239 5.6 16.8V18.3C5.6 18.5761 5.82386 18.8 6.1 18.8H7.6C7.87614 18.8 8.1 18.5761 8.1 18.3V16.8C8.1 16.5239 7.87614 16.3 7.6 16.3H6.1Z" />
<path d="M10.7 11.7C10.7 11.4239 10.9239 11.2 11.2 11.2H12.7C12.9761 11.2 13.2 11.4239 13.2 11.7V13.2C13.2 13.4761 12.9761 13.7 12.7 13.7H11.2C10.9239 13.7 10.7 13.4761 10.7 13.2V11.7Z" />
<path d="M11.2 16.3C10.9239 16.3 10.7 16.5239 10.7 16.8V18.3C10.7 18.5761 10.9239 18.8 11.2 18.8H12.7C12.9761 18.8 13.2 18.5761 13.2 18.3V16.8C13.2 16.5239 12.9761 16.3 12.7 16.3H11.2Z" />
<path d="M15.8 11.7C15.8 11.4239 16.0239 11.2 16.3 11.2H17.8C18.0761 11.2 18.3 11.4239 18.3 11.7V13.2C18.3 13.4761 18.0761 13.7 17.8 13.7H16.3C16.0239 13.7 15.8 13.4761 15.8 13.2V11.7Z" />
<path d="M16.3 16.3C16.0239 16.3 15.8 16.5239 15.8 16.8V18.3C15.8 18.5761 16.0239 18.8 16.3 18.8H17.8C18.0761 18.8 18.3 18.5761 18.3 18.3V16.8C18.3 16.5239 18.0761 16.3 17.8 16.3H16.3Z" />
</svg>
