<svg viewBox="0 0 24 24" fill="currentColor" xmlns="http://www.w3.org/2000/svg">
<path d="M6.9 2.6C6.9 2.26863 7.16863 2 7.5 2H8.8C9.13137 2 9.4 2.26863 9.4 2.6V4.5H14.6V2.6C14.6 2.26863 14.8686 2 15.2 2H16.5C16.8314 2 17.1 2.26863 17.1 2.6V4.5H19C20.1046 4.5 21 5.39543 21 6.5V8.3H3V6.5C3 5.39543 3.89543 4.5 5 4.5H6.9V2.6Z"/>
<path fill-rule="evenodd" clip-rule="evenodd" d="M21 9.5H3V20C3 21.1046 3.89543 22 5 22H19C20.1046 22 21 21.1046 21 20V9.5ZM5.6 12.5C5.6 12.2239 5.82386 12 6.1 12H7.6C7.87614 12 8.1 12.2239 8.1 12.5V14C8.1 14.2761 7.87614 14.5 7.6 14.5H6.1C5.82386 14.5 5.6 14.2761 5.6 14V12.5ZM5.6 17.6C5.6 17.3239 5.82386 17.1 6.1 17.1H7.6C7.87614 17.1 8.1 17.3239 8.1 17.6V19.1C8.1 19.3761 7.87614 19.6 7.6 19.6H6.1C5.82386 19.6 5.6 19.3761 5.6 19.1V17.6ZM10.7 12.5C10.7 12.2239 10.9239 12 11.2 12H12.7C12.9761 12 13.2 12.2239 13.2 12.5V14C13.2 14.2761 12.9761 14.5 12.7 14.5H11.2C10.9239 14.5 10.7 14.2761 10.7 14V12.5ZM10.7 17.6C10.7 17.3239 10.9239 17.1 11.2 17.1H12.7C12.9761 17.1 13.2 17.3239 13.2 17.6V19.1C13.2 19.3761 12.9761 19.6 12.7 19.6H11.2C10.9239 19.6 10.7 19.3761 10.7 19.1V17.6ZM15.8 12.5C15.8 12.2239 16.0239 12 16.3 12H17.8C18.0761 12 18.3 12.2239 18.3 12.5V14C18.3 14.2761 18.0761 14.5 17.8 14.5H16.3C16.0239 14.5 15.8 14.2761 15.8 14V12.5ZM15.8 17.6C15.8 17.3239 16.0239 17.1 16.3 17.1H17.8C18.0761 17.1 18.3 17.3239 18.3 17.6V19.1C18.3 19.3761 18.0761 19.6 17.8 19.6H16.3C16.0239 19.6 15.8 19.3761 15.8 19.1V17.6Z"/>
</svg>
