<svg viewBox="0 0 24 24" fill="currentColor" xmlns="http://www.w3.org/2000/svg">
<path d="M21.375 18.125H3.875V5.625C3.875 5.27969 3.59531 5 3.25 5H2.625C2.27969 5 2 5.27969 2 5.625V18.75C2 19.4402 2.55977 20 3.25 20H21.375C21.7203 20 22 19.7203 22 19.375V18.75C22 18.4047 21.7203 18.125 21.375 18.125Z"/>
<path d="M7.47971 7.72137C7.23557 7.47727 6.83986 7.47727 6.59572 7.72137L6.15393 8.16317C5.90979 8.40727 5.90979 8.80301 6.15393 9.04715L9.05783 11.9511C9.30197 12.1952 9.69768 12.1952 9.94182 11.9511L13.25 8.64285L16.6719 12.0647L15.5195 13.2167C14.9289 13.8073 15.3473 14.8171 16.1824 14.8171H20.125C20.4703 14.8171 20.75 14.5374 20.75 14.1921V10.2495C20.75 9.41434 19.7402 8.99598 19.1496 9.5866L17.9977 10.739L13.6922 6.43307C13.448 6.18898 13.0523 6.18898 12.8082 6.43307L9.50002 9.74129L7.47971 7.72137Z"/>
</svg>
