<svg viewBox="0 0 24 24" fill="currentColor" xmlns="http://www.w3.org/2000/svg">
<path d="M21.375 18.125H3.875V5.625C3.875 5.27969 3.59531 5 3.25 5H2.625C2.27969 5 2 5.27969 2 5.625V18.75C2 19.4402 2.55977 20 3.25 20H21.375C21.7203 20 22 19.7203 22 19.375V18.75C22 18.4047 21.7203 18.125 21.375 18.125Z"/>
<path d="M7.47971 13.3457C7.23557 13.5898 6.83986 13.5898 6.59572 13.3457L6.15393 12.9039C5.90979 12.6598 5.90979 12.2641 6.15393 12.0199L9.05783 9.11602C9.30197 8.87187 9.69768 8.87187 9.94182 9.11602L13.25 12.4242L16.6719 9.00234L15.5195 7.85039C14.9289 7.25977 15.3473 6.25 16.1824 6.25H20.125C20.4703 6.25 20.75 6.52969 20.75 6.875V10.8176C20.75 11.6527 19.7402 12.0711 19.1496 11.4805L17.9977 10.3281L13.6922 14.634C13.448 14.8781 13.0523 14.8781 12.8082 14.634L9.50002 11.3258L7.47971 13.3457Z"/>
</svg>
