<svg viewBox="0 0 24 24" fill="currentColor" xmlns="http://www.w3.org/2000/svg">
<path d="M16.0947 8.13029L16.8789 8.96427C17.0413 9.13699 17.0402 9.41592 16.8765 9.58728L10.8707 15.8723C10.707 16.0436 10.4426 16.0424 10.2802 15.8697L7.12113 12.5102C6.95869 12.3374 6.95977 12.0584 7.1235 11.8871L7.91409 11.0598C8.07781 10.8885 8.34221 10.8896 8.50462 11.0624L10.5853 13.2751L15.5041 8.12779C15.6679 7.95642 15.9323 7.95756 16.0947 8.13029Z"/>
<path fill-rule="evenodd" clip-rule="evenodd" d="M2 12C2 6.47714 6.47714 2 12 2C17.5229 2 22 6.47714 22 12C22 17.5229 17.5229 22 12 22C6.47714 22 2 17.5229 2 12ZM20.0645 12C20.0645 7.54238 16.457 3.93548 12 3.93548C7.54238 3.93548 3.93548 7.54306 3.93548 12C3.93548 16.4576 7.54306 20.0645 12 20.0645C16.4576 20.0645 20.0645 16.457 20.0645 12Z"/>
</svg>
