<svg viewBox="0 0 24 24" fill="currentColor" xmlns="http://www.w3.org/2000/svg">
<path d="M12 2C6.47581 2 2 6.47581 2 12C2 17.5242 6.47581 22 12 22C17.5242 22 22 17.5242 22 12C22 6.47581 17.5242 2 12 2ZM12 20.0645C7.54435 20.0645 3.93548 16.4556 3.93548 12C3.93548 7.54435 7.54435 3.93548 12 3.93548C16.4556 3.93548 20.0645 7.54435 20.0645 12C20.0645 16.4556 16.4556 20.0645 12 20.0645ZM16.1049 9.49193L13.5968 12L16.1049 14.5081C16.2944 14.6976 16.2944 15.0041 16.1049 15.1936L15.1936 16.1049C15.0041 16.2944 14.6976 16.2944 14.5081 16.1049L12 13.5968L9.49193 16.1049C9.30242 16.2944 8.99596 16.2944 8.80645 16.1049L7.89516 15.1936C7.70564 15.0041 7.70564 14.6976 7.89516 14.5081L10.4032 12L7.89516 9.49193C7.70564 9.30242 7.70564 8.99596 7.89516 8.80645L8.80645 7.89516C8.99596 7.70564 9.30242 7.70564 9.49193 7.89516L12 10.4032L14.5081 7.89516C14.6976 7.70564 15.0041 7.70564 15.1936 7.89516L16.1049 8.80645C16.2944 8.99596 16.2944 9.30242 16.1049 9.49193Z"/>
</svg>
