<svg viewBox="0 0 24 24" fill="currentColor" xmlns="http://www.w3.org/2000/svg">
<path d="M13.2753 16.4485C13.2753 17.1389 12.7156 17.6986 12.0253 17.6986C11.3349 17.6986 10.7753 17.1389 10.7753 16.4485C10.7753 15.7582 11.3349 15.1986 12.0253 15.1986C12.7156 15.1986 13.2753 15.7582 13.2753 16.4485Z"/>
<path d="M12.9979 7.85612C12.9644 7.37817 12.5305 7 12 7C11.4695 7 11.0355 7.37817 11.0021 7.85612H11V12.9691C11.0069 13.4693 11.452 13.8728 12 13.8728C12.5479 13.8728 12.9929 13.4693 12.9999 12.9691L13 7.85612H12.9979Z"/>
<path fill-rule="evenodd" clip-rule="evenodd" d="M12 22C17.5228 22 22 17.5228 22 12C22 6.47715 17.5228 2 12 2C6.47715 2 2 6.47715 2 12C2 17.5228 6.47715 22 12 22ZM12 20.0975C16.4721 20.0975 20.0975 16.4721 20.0975 12C20.0975 7.52787 16.4721 3.9025 12 3.9025C7.52787 3.9025 3.9025 7.52787 3.9025 12C3.9025 16.4721 7.52787 20.0975 12 20.0975Z"/>
</svg>
