<svg viewBox="0 0 24 24" fill="currentColor" xmlns="http://www.w3.org/2000/svg">
<path d="M19.8656 11.4625C19.9531 11.1531 20 10.8313 20 10.5C20 8.56562 18.4344 7 16.5 7C15.9781 7 15.4719 7.1125 15 7.3375C14.0125 5.93125 12.3656 5 10.5 5C7.55 5 5.13437 7.32812 5.00625 10.2563C3.225 10.8813 2 12.5719 2 14.5C2 16.9875 4.0125 19 6.5 19H18C20.2094 19 22 17.2125 22 15C22 13.5312 21.1938 12.1625 19.8656 11.4625ZM18 18H6.5C4.56562 18 3 16.4344 3 14.5C3 12.725 4.31875 11.2594 6.03125 11.0312C6.00938 10.8562 6 10.6781 6 10.5C6 8.01562 8.01562 6 10.5 6C12.3844 6 13.9969 7.15625 14.6687 8.8C15.125 8.30938 15.775 8 16.5 8C17.8813 8 19 9.11875 19 10.5C19 11.0781 18.8031 11.6125 18.4719 12.0375C19.9062 12.2625 21 13.5031 21 15C21 16.6562 19.6562 18 18 18Z"/>
<path d="M11.2344 9.26562C11.3812 9.11875 11.6187 9.11875 11.7656 9.26562L14.8438 12.3375C14.9906 12.4844 14.9906 12.7219 14.8438 12.8687L14.6656 13.0469C14.5187 13.1937 14.2812 13.1937 14.1344 13.0469L12.0031 10.9156V15.625C12.0031 15.8312 11.8344 16 11.6281 16H11.3781C11.1719 16 11.0031 15.8312 11.0031 15.625V10.9156L8.87187 13.0469C8.725 13.1937 8.4875 13.1937 8.34062 13.0469L8.1625 12.8687C8.01562 12.7219 8.01562 12.4844 8.1625 12.3375L11.2344 9.26562Z"/>
</svg>
