<svg viewBox="0 0 24 24" fill="currentColor" xmlns="http://www.w3.org/2000/svg">
<path fill-rule="evenodd" clip-rule="evenodd" d="M12.0018 15.75C14.0739 15.75 15.7536 14.071 15.7536 12C15.7536 9.92892 14.0739 8.25 12.0018 8.25C9.92975 8.25 8.25 9.92892 8.25 12C8.25 14.071 9.92975 15.75 12.0018 15.75ZM12.0137 13.8929C13.0662 13.8929 13.9194 13.0401 13.9194 11.9881C13.9194 10.9361 13.0662 10.0833 12.0137 10.0833C10.9612 10.0833 10.108 10.9361 10.108 11.9881C10.108 13.0401 10.9612 13.8929 12.0137 13.8929Z"/>
<path fill-rule="evenodd" clip-rule="evenodd" d="M10.2391 2.00149C11.3934 1.99752 12.5476 2.00149 13.7018 2.01339C14.5646 2.11367 15.1293 2.56203 15.3961 3.35846C15.4538 3.58067 15.5115 3.80286 15.5692 4.02506C15.627 4.24725 15.6846 4.46944 15.7423 4.69164C16.0766 4.86831 16.4063 5.05081 16.7317 5.23919C17.2062 5.10811 17.6802 4.97718 18.1539 4.84638C19.0531 4.71144 19.7498 5.00903 20.244 5.73913L21.7279 8.21502C22.0257 8.7766 22.0669 9.35588 21.8516 9.9529C21.7608 10.1436 21.6455 10.3182 21.5053 10.4767C21.1544 10.7806 20.8081 11.0901 20.4665 11.4051C20.4501 11.7939 20.4501 12.1828 20.4665 12.5717C20.6438 12.7343 20.8211 12.897 20.9983 13.0597C21.1755 13.2224 21.3528 13.385 21.53 13.5477C21.9871 14.0935 22.1108 14.7045 21.9011 15.3808C21.8502 15.5185 21.7925 15.6533 21.7279 15.7855C21.188 16.698 20.6356 17.6027 20.0708 18.4995C19.6059 19.0244 19.0165 19.2505 18.3023 19.1779C17.7732 19.0467 17.2455 18.9078 16.7193 18.7613C16.3911 18.9383 16.0654 19.1208 15.7423 19.3089C15.6132 19.846 15.4647 20.3778 15.2971 20.904C15.0052 21.483 14.5311 21.8361 13.8749 21.9633C12.6637 22.0022 11.4517 22.0102 10.2391 21.9872C9.37691 21.8398 8.82866 21.3597 8.59428 20.5469C8.54069 20.3405 8.4871 20.1342 8.4335 19.9279C8.37992 19.7216 8.32633 19.5152 8.27274 19.3089C7.93589 19.1291 7.60198 18.9465 7.27101 18.7613C6.71639 18.921 6.15577 19.0599 5.58912 19.1779C5.05029 19.2405 4.58035 19.0976 4.17929 18.7494C4.02448 18.6005 3.88845 18.4379 3.77118 18.2614L2.13875 15.4999C1.88556 14.7877 2.00098 14.137 2.48502 13.5477C2.66258 13.3847 2.84014 13.2218 3.0177 13.0589C3.19466 12.8965 3.37162 12.7341 3.54857 12.5717C3.56507 12.1828 3.56507 11.7939 3.54857 11.4051C3.20701 11.0901 2.86074 10.7806 2.50976 10.4767C2.11147 10.015 1.94658 9.48332 2.01508 8.88161C2.04624 8.74401 2.08747 8.6091 2.13875 8.4769C2.68915 7.5682 3.23329 6.65559 3.77118 5.73913C4.19262 5.05819 4.8151 4.75266 5.63858 4.82257C6.18486 4.95458 6.729 5.09345 7.27101 5.23919C7.59587 5.055 7.92567 4.87645 8.26037 4.70354C8.39871 4.18289 8.54298 3.6631 8.69322 3.14421C9.00582 2.50569 9.52113 2.12478 10.2391 2.00149ZM10.4864 3.88222H13.5286C13.6991 4.60059 13.8845 5.31546 14.0847 6.02679C14.9397 6.30155 15.7163 6.74128 16.3736 7.30674C16.7362 7.20479 17.0988 7.10284 17.4614 7.00088L18.562 6.6914C19.0813 7.51613 19.5883 8.34937 20.0831 9.1911C19.5295 9.70087 18.9765 10.21 18.4241 10.7185C18.5145 11.1361 18.562 11.5688 18.562 12.0122C18.562 12.4519 18.5153 12.8811 18.4263 13.2955C18.9857 13.7958 19.538 14.3044 20.0831 14.8214C19.5854 15.6407 19.0907 16.4621 18.5992 17.2854C18.5338 17.3057 18.4679 17.3018 18.4013 17.2735C17.7305 17.0868 17.0614 16.8957 16.3941 16.7C15.7243 17.2809 14.9294 17.7308 14.0531 18.0076C13.969 18.3461 13.8849 18.6847 13.8008 19.0233C13.71 19.3883 13.6194 19.7533 13.5286 20.1184C12.5227 20.1263 11.5168 20.1184 10.5111 20.0945C10.4131 19.6996 10.3151 19.3046 10.217 18.9095L9.99583 18.0183C9.11368 17.7447 8.31317 17.2961 7.63846 16.715C6.90622 16.894 6.17776 17.0921 5.45309 17.3091C4.93699 16.4864 4.42994 15.6571 3.93195 14.8214C4.4844 14.3049 5.03533 13.79 5.58477 13.2766C5.49842 12.8681 5.45309 12.4452 5.45309 12.0122C5.45309 11.5688 5.5006 11.1361 5.59101 10.7185C5.0386 10.21 4.48558 9.70087 3.93195 9.1911C4.42682 8.34937 4.93386 7.51613 5.45309 6.6914C6.18107 6.89889 6.90952 7.10486 7.63844 7.30936C8.30898 6.73184 9.10376 6.28522 9.97944 6.01124C10.1576 5.30407 10.3266 4.59439 10.4864 3.88222Z"/>
</svg>
