<svg viewBox="0 0 24 24" fill="currentColor" xmlns="http://www.w3.org/2000/svg">
<path fill-rule="evenodd" clip-rule="evenodd" d="M5.25 4.92864C5.16475 4.92864 5.08299 4.9625 5.02272 5.02279C4.96243 5.08307 4.92857 5.16483 4.92857 5.25008V14.8933C4.92857 15.0707 5.07257 15.2147 5.25 15.2147H7.82143C8.07717 15.2147 8.32245 15.3164 8.50328 15.4972C8.68412 15.678 8.78571 15.9233 8.78571 16.1791V18.9949L12.2829 15.4976C12.4635 15.3167 12.7086 15.2149 12.9643 15.2147H18.75C18.8353 15.2147 18.917 15.1809 18.9773 15.1206C19.0376 15.0603 19.0714 14.9786 19.0714 14.8933V5.25008C19.0714 5.16483 19.0376 5.08307 18.9773 5.02279C18.917 4.9625 18.8353 4.92864 18.75 4.92864H5.25ZM3 5.25008C3 4.00804 4.008 3 5.25 3H18.75C19.992 3 21 4.00804 21 5.25008V14.8933C21 15.4901 20.7629 16.0624 20.341 16.4843C19.9191 16.9063 19.3468 17.1434 18.75 17.1434H13.3629L10.0547 20.4517C9.79274 20.7135 9.45901 20.8918 9.09571 20.964C8.73241 21.0362 8.35586 20.9992 8.01364 20.8575C7.67142 20.7157 7.37891 20.4757 7.17306 20.1678C6.96721 19.8598 6.85728 19.4978 6.85714 19.1274V17.1434H5.25C4.65326 17.1434 4.08097 16.9063 3.65901 16.4843C3.23705 16.0624 3 15.4901 3 14.8933V5.25008Z"/>
</svg>
