<svg viewBox="0 0 24 24" fill="currentColor" xmlns="http://www.w3.org/2000/svg">
<path d="M21.589 3H16.9304C16.5653 3 16.381 3.44295 16.6397 3.70177L18.2905 5.35303L13.1204 10.5231C12.9599 10.6836 12.9599 10.9439 13.1204 11.1045L13.8956 11.8796C14.0561 12.0401 14.3164 12.0401 14.4769 11.8796L19.6471 6.7096L21.2983 8.36055C21.5557 8.61792 22.0001 8.43711 22.0001 8.06987V3.41109C22.0001 3.18407 21.816 3 21.589 3Z"/>
<path d="M14.0571 4H5.25C4.008 4 3 5.00804 3 6.25008V15.8933C3 16.4901 3.23705 17.0624 3.65901 17.4843C4.08097 17.9063 4.65326 18.1434 5.25 18.1434H6.85714V20.1274C6.85728 20.4978 6.96721 20.8598 7.17306 21.1678C7.37891 21.4757 7.67142 21.7157 8.01364 21.8575C8.35586 21.9992 8.73241 22.0362 9.09571 21.964C9.45901 21.8918 9.79274 21.7135 10.0547 21.4517L13.3629 18.1434H18.75C19.3468 18.1434 19.9191 17.9063 20.341 17.4843C20.7629 17.0624 21 16.4901 21 15.8933V10.9431H19.0714V15.8933C19.0714 15.9786 19.0376 16.0603 18.9773 16.1206C18.917 16.1809 18.8353 16.2147 18.75 16.2147H12.9643C12.7086 16.2149 12.4635 16.3167 12.2829 16.4976L8.78571 19.9949V17.1791C8.78571 16.9233 8.68412 16.678 8.50328 16.4972C8.32245 16.3164 8.07717 16.2147 7.82143 16.2147H5.25C5.07257 16.2147 4.92857 16.0707 4.92857 15.8933V6.25008C4.92857 6.16483 4.96243 6.08307 5.02272 6.02279C5.08299 5.9625 5.16475 5.92864 5.25 5.92864H14.0571V4Z"/>
</svg>
