<svg viewBox="0 0 24 24" fill="currentColor" xmlns="http://www.w3.org/2000/svg">
<path d="M19.9508 4.57582L17.9242 2.54918C17.5726 2.19755 17.0956 2 16.5984 2H9.875C8.83945 2 8 2.83945 8 3.875V5.75H4.875C3.83945 5.75 3 6.58945 3 7.625V20.125C3 21.1605 3.83945 22 4.875 22H13.625C14.6605 22 15.5 21.1605 15.5 20.125V18.25H18.625C19.6605 18.25 20.5 17.4105 20.5 16.375V5.90164C20.5 5.40436 20.3025 4.92745 19.9508 4.57582ZM13.3906 20.125H5.10938C5.04721 20.125 4.9876 20.1003 4.94365 20.0564C4.89969 20.0124 4.875 19.9528 4.875 19.8906V7.85938C4.875 7.79721 4.89969 7.7376 4.94365 7.69365C4.9876 7.64969 5.04721 7.625 5.10938 7.625H8V16.375C8 17.4105 8.83945 18.25 9.875 18.25H13.625V19.8906C13.625 19.9528 13.6003 20.0124 13.5564 20.0564C13.5124 20.1003 13.4528 20.125 13.3906 20.125ZM18.3906 16.375H10.1094C10.0472 16.375 9.9876 16.3503 9.94365 16.3064C9.89969 16.2624 9.875 16.2028 9.875 16.1406V4.10938C9.875 4.04721 9.89969 3.9876 9.94365 3.94365C9.9876 3.89969 10.0472 3.875 10.1094 3.875H14.25V7.3125C14.25 7.83027 14.6697 8.25 15.1875 8.25H18.625V16.1406C18.625 16.2028 18.6003 16.2624 18.5564 16.3064C18.5124 16.3503 18.4528 16.375 18.3906 16.375ZM18.625 6.375H16.125V3.875H16.5012C16.5634 3.875 16.623 3.89969 16.667 3.94363L18.5564 5.83301C18.5781 5.85477 18.5954 5.88061 18.6072 5.90905C18.6189 5.93749 18.625 5.96797 18.625 5.99875V6.375Z"/>
</svg>
