<svg viewBox="0 0 24 24" fill="currentColor" xmlns="http://www.w3.org/2000/svg">
<path fill-rule="evenodd" clip-rule="evenodd" d="M9.39022 4.50727C10.5511 2.49758 13.4519 2.49758 14.6128 4.50727L21.5942 16.5999C22.7553 18.6099 21.3046 21.1232 18.9829 21.1232H5.02004C2.69841 21.1232 1.24777 18.6101 2.40864 16.6001L9.39022 4.50727ZM11.122 5.50766L4.1407 17.6001C3.7499 18.2766 4.23797 19.1232 5.02004 19.1232H18.9829C19.765 19.1232 20.2532 18.2768 19.8624 17.6003L12.8809 5.50766C12.4899 4.83078 11.513 4.83078 11.122 5.50766ZM12 8C12.5523 8 13 8.44772 13 9L13.0015 13C13.0015 13.5523 12.5538 14 12.0015 14C11.4492 14 11.0015 13.5523 11.0015 13L11 9C11 8.44772 11.4477 8 12 8ZM11.0015 16.0924C11.0015 15.5401 11.4492 15.0924 12.0015 15.0924H12.0116C12.5638 15.0924 13.0116 15.5401 13.0116 16.0924C13.0116 16.6446 12.5638 17.0924 12.0116 17.0924H12.0015C11.4492 17.0924 11.0015 16.6446 11.0015 16.0924Z"/>
</svg>
