<svg viewBox="0 0 24 24" fill="currentColor" xmlns="http://www.w3.org/2000/svg">
<path fill-rule="evenodd" clip-rule="evenodd" d="M17.1634 4.21672C15.4084 3.36777 13.969 2.94465 11.612 3.00581C11.2007 3.03846 10.7859 3.07515 10.3678 3.11588C8.21376 3.38708 6.31547 4.23513 4.67287 5.66004C3.62016 6.60601 2.85047 7.75171 2.36381 9.09711C1.59351 11.8671 2.1638 14.3053 4.07467 16.4116C3.61664 17.5431 2.98254 18.5543 2.17238 19.445C2.12643 19.5144 2.08655 19.5878 2.05274 19.6651C1.94975 20.0195 1.9976 20.3539 2.19631 20.6681C2.31232 20.8356 2.46786 20.9456 2.66291 20.9983C3.49519 21.0136 4.31672 20.9239 5.12751 20.7293C6.28771 20.3787 7.36847 19.8609 8.36977 19.1759C8.8542 19.3274 9.34472 19.4538 9.84135 19.5551C11.5762 19.8373 13.299 19.772 15.0098 19.3593C17.0853 18.8392 18.8281 17.7669 20.2381 16.1425C20.8557 15.4021 21.3263 14.5703 21.6499 13.6472C22.3425 11.3316 22.0075 9.18705 20.6449 7.21345C19.7089 5.93816 18.5483 4.93924 17.1634 4.21672ZM16.3498 5.97807C14.8734 5.27903 13.3181 4.94061 11.6838 4.96285C10.093 5.02241 8.59355 5.43421 7.18533 6.19823C6.12708 6.81533 5.26169 7.64299 4.58912 8.68123C3.53384 10.6094 3.59765 12.493 4.78055 14.3322C5.22834 14.9125 5.70291 15.471 6.20427 16.0079C5.89857 16.9592 5.50775 17.8725 5.03179 18.7477C5.55106 18.5763 6.05355 18.3562 6.53927 18.0873C7.05157 17.7551 7.55406 17.4086 8.04674 17.0476C8.59187 17.2338 9.14222 17.401 9.69778 17.5491C10.7229 17.7944 11.7597 17.8678 12.8084 17.7692C14.6269 17.6362 16.27 17.0247 17.7376 15.9345C18.5485 15.2992 19.1746 14.5123 19.616 13.5738C20.3942 11.6549 20.1948 9.85279 19.0178 8.16751C18.299 7.22071 17.4097 6.49088 16.3498 5.97807Z"/>
<path d="M15.6966 9.78722C15.8837 9.5982 16 9.33305 16 9.03948C16 8.46539 15.5551 8 15.0062 8C14.6408 8 14.3214 8.20636 14.1489 8.51375L11.1917 12.4831L9.74383 11.1998C9.56164 10.9807 9.29315 10.8421 8.99371 10.8421C8.4449 10.8421 8 11.3075 8 11.8816C8 12.2379 8.17144 12.5525 8.43276 12.7398L10.5946 14.6559C10.7765 14.8672 11.0401 15 11.3333 15C11.6859 15 11.9956 14.8079 12.172 14.5182L15.6966 9.78722Z"/>
</svg>
