<svg viewBox="0 0 24 24" fill="currentColor" xmlns="http://www.w3.org/2000/svg">
<path d="M12.0332 2C12.7668 2 13.3595 2.55859 13.3595 3.25V4.64453C13.4258 4.65234 13.488 4.66016 13.5543 4.67188C13.5708 4.67578 13.5833 4.67578 13.5999 4.67969L15.5894 5.02344C16.3104 5.14844 16.7872 5.80078 16.6545 6.47656C16.5219 7.15234 15.8297 7.60547 15.1126 7.48047L13.144 7.14063C11.8467 6.96094 10.7027 7.08203 9.89866 7.38281C9.09458 7.68359 8.77131 8.09766 8.69669 8.48047C8.61381 8.89844 8.67597 9.13281 8.74644 9.27734C8.82104 9.42969 8.97439 9.60156 9.27696 9.79297C9.95254 10.2109 10.9887 10.4844 12.3315 10.8203L12.4518 10.8516C13.6372 11.1484 15.0878 11.5078 16.1654 12.1719C16.754 12.5352 17.3094 13.0273 17.6534 13.7148C18.0057 14.4141 18.0803 15.1953 17.9187 16.0273C17.6326 17.5117 16.5467 18.5039 15.1998 19.0234C14.6319 19.2422 14.0144 19.3828 13.3595 19.4531V20.75C13.3595 21.4414 12.7668 22 12.0332 22C11.2996 22 10.7069 21.4414 10.7069 20.75V19.3867C10.6903 19.3828 10.6696 19.3828 10.653 19.3789H10.6447C9.6334 19.2305 7.97138 18.8203 6.85231 18.3516C6.18502 18.0703 5.88245 17.332 6.18087 16.7031C6.47929 16.0742 7.26263 15.7891 7.92993 16.0703C8.79617 16.4336 10.2219 16.793 11.0467 16.9141C12.3689 17.0977 13.4589 16.9922 14.1967 16.707C14.8971 16.4375 15.2163 16.0469 15.3074 15.5781C15.3863 15.1641 15.3241 14.9258 15.2537 14.7813C15.1748 14.625 15.0215 14.4531 14.7147 14.2617C14.035 13.8437 12.9947 13.5703 11.6477 13.2344L11.5317 13.207C10.3504 12.9102 8.89979 12.5469 7.82217 11.8828C7.23362 11.5195 6.68238 11.0234 6.33837 10.3359C5.99021 9.63672 5.91976 8.85547 6.08555 8.02344C6.38396 6.53125 7.56934 5.5625 8.91637 5.05859C9.46761 4.85156 10.0727 4.71094 10.7069 4.62891V3.25C10.7069 2.55859 11.2996 2 12.0332 2Z"/>
</svg>
