<svg viewBox="0 0 24 24" fill="currentColor" xmlns="http://www.w3.org/2000/svg">
<path fill-rule="evenodd" clip-rule="evenodd" d="M7.29244 9.30468C7.47974 9.11758 7.73374 9.01248 7.99858 9.01248C8.26342 9.01248 8.51742 9.11758 8.70472 9.30468L11.9937 12.5911L15.2827 9.30468C15.3748 9.20936 15.4851 9.13333 15.607 9.08102C15.7288 9.02872 15.8598 9.0012 15.9925 9.00004C16.1251 8.99889 16.2567 9.02414 16.3794 9.07432C16.5022 9.1245 16.6136 9.19861 16.7074 9.29231C16.8012 9.38601 16.8753 9.49744 16.9256 9.62009C16.9758 9.74274 17.0011 9.87416 17 10.0067C16.9988 10.1392 16.9712 10.2701 16.9189 10.3919C16.8665 10.5136 16.7904 10.6238 16.695 10.7158L12.6999 14.7078C12.5126 14.8949 12.2586 15 11.9937 15C11.7289 15 11.4749 14.8949 11.2876 14.7078L7.29244 10.7158C7.10519 10.5287 7 10.2749 7 10.0103C7 9.74563 7.10519 9.49183 7.29244 9.30468Z"/>
</svg>
