<svg viewBox="0 0 24 24" fill="currentColor" xmlns="http://www.w3.org/2000/svg">
<path fill-rule="evenodd" clip-rule="evenodd" d="M9.30468 16.7076C9.11758 16.5203 9.01248 16.2663 9.01248 16.0014C9.01248 15.7366 9.11758 15.4826 9.30468 15.2953L12.5911 12.0063L9.30468 8.71725C9.20936 8.62516 9.13333 8.5149 9.08102 8.39304C9.02872 8.27119 9.0012 8.14015 9.00004 8.00751C8.99889 7.87487 9.02414 7.74333 9.07432 7.62058C9.1245 7.49783 9.19861 7.38637 9.29231 7.29258C9.38601 7.19879 9.49744 7.12468 9.62009 7.07444C9.74274 7.0242 9.87416 6.99894 10.0067 7.00003C10.1392 7.00123 10.2701 7.0288 10.3919 7.08114C10.5136 7.13347 10.6238 7.20958 10.7158 7.30496L14.7078 11.3001C14.8949 11.4874 15 11.7414 15 12.0063C15 12.2711 14.8949 12.5251 14.7078 12.7124L10.7158 16.7076C10.5287 16.8948 10.2749 17 10.0103 17C9.74563 17 9.49183 16.8948 9.30468 16.7076Z"/>
</svg>
