<svg viewBox="0 0 24 24" fill="currentColor" xmlns="http://www.w3.org/2000/svg">
<path fill-rule="evenodd" clip-rule="evenodd" d="M16.7076 14.6953C16.5203 14.8824 16.2663 14.9875 16.0014 14.9875C15.7366 14.9875 15.4826 14.8824 15.2953 14.6953L12.0063 11.4089L8.71725 14.6953C8.62516 14.7906 8.5149 14.8667 8.39304 14.919C8.27119 14.9713 8.14015 14.9988 8.00751 15C7.87487 15.0011 7.74333 14.9759 7.62058 14.9257C7.49783 14.8755 7.38637 14.8014 7.29258 14.7077C7.19879 14.614 7.12468 14.5026 7.07444 14.3799C7.0242 14.2573 6.99894 14.1258 7.00003 13.9933C7.00123 13.8608 7.0288 13.7299 7.08114 13.6081C7.13347 13.4864 7.20958 13.3762 7.30496 13.2842L11.3001 9.29221C11.4874 9.10509 11.7414 9 12.0063 9C12.2711 9 12.5251 9.10509 12.7124 9.29221L16.7076 13.2842C16.8948 13.4713 17 13.7251 17 13.9897C17 14.2544 16.8948 14.5082 16.7076 14.6953Z"/>
</svg>
