<svg viewBox="0 0 24 24" fill="currentColor" xmlns="http://www.w3.org/2000/svg">
<path fill-rule="evenodd" clip-rule="evenodd" d="M14.6953 7.29244C14.8824 7.47974 14.9875 7.73374 14.9875 7.99858C14.9875 8.26342 14.8824 8.51742 14.6953 8.70472L11.4089 11.9937L14.6953 15.2827C14.7906 15.3748 14.8667 15.4851 14.919 15.607C14.9713 15.7288 14.9988 15.8598 15 15.9925C15.0011 16.1251 14.9759 16.2567 14.9257 16.3794C14.8755 16.5022 14.8014 16.6136 14.7077 16.7074C14.614 16.8012 14.5026 16.8753 14.3799 16.9256C14.2573 16.9758 14.1258 17.0011 13.9933 17C13.8608 16.9988 13.7299 16.9712 13.6081 16.9189C13.4864 16.8665 13.3762 16.7904 13.2842 16.695L9.29221 12.6999C9.10509 12.5126 9 12.2586 9 11.9937C9 11.7289 9.10509 11.4749 9.29221 11.2876L13.2842 7.29244C13.4713 7.10519 13.7251 7 13.9897 7C14.2544 7 14.5082 7.10519 14.6953 7.29244Z"/>
</svg>
