<svg viewBox="0 0 24 24" fill="currentColor" xmlns="http://www.w3.org/2000/svg">
<path d="M12 2C13.3802 2 14.5 3.11979 14.5 4.5C14.5 5.88021 13.3802 7 12 7C10.6198 7 9.5 5.88021 9.5 4.5C9.5 3.11979 10.6198 2 12 2Z"/>
<path d="M12 9.5C13.3802 9.5 14.5 10.6198 14.5 12C14.5 13.3802 13.3802 14.5 12 14.5C10.6198 14.5 9.5 13.3802 9.5 12C9.5 10.6198 10.6198 9.5 12 9.5Z"/>
<path d="M12 17C13.3802 17 14.5 18.1198 14.5 19.5C14.5 20.8802 13.3802 22 12 22C10.6198 22 9.5 20.8802 9.5 19.5C9.5 18.1198 10.6198 17 12 17Z"/>
</svg>
