<svg viewBox="0 0 24 24" fill="currentColor" xmlns="http://www.w3.org/2000/svg">
<path d="M2 12C2 10.6198 3.11979 9.5 4.5 9.5C5.88021 9.5 7 10.6198 7 12C7 13.3802 5.88021 14.5 4.5 14.5C3.11979 14.5 2 13.3802 2 12Z"/>
<path d="M9.5 12C9.5 10.6198 10.6198 9.5 12 9.5C13.3802 9.5 14.5 10.6198 14.5 12C14.5 13.3802 13.3802 14.5 12 14.5C10.6198 14.5 9.5 13.3802 9.5 12Z"/>
<path d="M17 12C17 10.6198 18.1198 9.5 19.5 9.5C20.8802 9.5 22 10.6198 22 12C22 13.3802 20.8802 14.5 19.5 14.5C18.1198 14.5 17 13.3802 17 12Z"/>
</svg>
