<svg viewBox="0 0 24 24" fill="currentColor" xmlns="http://www.w3.org/2000/svg">
<path fill-rule="evenodd" clip-rule="evenodd" d="M3.63112 7.11577L3.65621 15.8006C3.65621 16.8298 4.2544 17.57 5.1995 17.9969C5.45009 18.0939 5.70938 18.1525 5.97741 18.1727L17.9222 18.1978C17.9222 18.1978 18.7378 18.1978 18.7378 19.001C18.7378 19.8042 17.9222 19.8293 17.9222 19.8293H5.70138C4.38394 19.8293 3.22868 18.9445 2.50188 17.7334C2.2332 17.2294 2 16.7043 2 16.1269V7.11577C2 7.11577 2 6.3 2.81556 6.3C3.63112 6.3 3.63112 7.11577 3.63112 7.11577Z"/>
<path fill-rule="evenodd" clip-rule="evenodd" d="M7.43287 4.25L19.8545 4.26255C21.1217 4.26255 22 5.05322 22 6.30826V14.466C22 15.6834 21.1343 16.4866 19.9046 16.4866H7.23212C6.14053 16.4866 5.33752 15.6583 5.33752 14.5915V6.15766C5.33752 4.99047 6.22836 4.25 7.43287 4.25ZM7.35759 5.93175L19.9046 5.9443C20.4065 5.9443 20.5696 6.35846 20.2811 6.64712L15.1117 10.9644C14.3965 11.6798 12.9285 11.6673 12.2509 10.9896L6.99373 6.58437C6.76906 6.39611 6.84316 5.93175 7.35759 5.93175ZM20.3312 14.3154L20.3061 8.81833L15.8645 12.4956C14.8231 13.5373 12.2509 13.3741 11.0464 12.1693L6.99373 8.79323V14.3154C7.0197 14.6175 7.18281 14.789 7.48306 14.83H19.8294C20.143 14.83 20.3312 14.6417 20.3312 14.3154Z"/>
</svg>
