<svg viewBox="0 0 24 24" fill="currentColor" xmlns="http://www.w3.org/2000/svg">
<path d="M20.125 4.5H3.875C2.83945 4.5 2 5.33945 2 6.375V17.625C2 18.6605 2.83945 19.5 3.875 19.5H20.125C21.1605 19.5 22 18.6605 22 17.625V6.375C22 5.33945 21.1605 4.5 20.125 4.5ZM20.125 6.375V7.96895C19.2491 8.68219 17.8528 9.79125 14.8677 12.1287C14.2098 12.6462 12.9067 13.8893 12 13.8748C11.0934 13.8895 9.78988 12.646 9.1323 12.1287C6.14766 9.7916 4.75098 8.6823 3.875 7.96895V6.375H20.125ZM3.875 17.625V10.3749C4.77008 11.0879 6.03941 12.0883 7.97414 13.6033C8.82793 14.2754 10.3231 15.759 12 15.75C13.6686 15.759 15.1449 14.2969 16.0255 13.6036C17.9602 12.0886 19.2299 11.0879 20.125 10.375V17.625H3.875Z"/>
</svg>
