<svg viewBox="0 0 24 24" fill="currentColor" xmlns="http://www.w3.org/2000/svg">
<path d="M22.7934 19.3815L2.2378 3.31206C2.18142 3.26692 2.1167 3.23333 2.04733 3.2132C1.97797 3.19307 1.90532 3.1868 1.83354 3.19475C1.76175 3.20269 1.69223 3.2247 1.62895 3.25952C1.56567 3.29433 1.50987 3.34127 1.46473 3.39765L1.12099 3.82698C1.07574 3.88338 1.04206 3.94815 1.02187 4.01758C1.00168 4.08701 0.995384 4.15974 1.00333 4.23161C1.01128 4.30347 1.03333 4.37307 1.0682 4.43641C1.10308 4.49975 1.1501 4.55558 1.20658 4.60075L21.7622 20.6702C21.8186 20.7154 21.8833 20.749 21.9527 20.7691C22.022 20.7892 22.0947 20.7955 22.1665 20.7875C22.2382 20.7796 22.3078 20.7576 22.371 20.7228C22.4343 20.6879 22.4901 20.641 22.5353 20.5846L22.879 20.1553C22.9243 20.0989 22.9579 20.0341 22.9781 19.9647C22.9983 19.8952 23.0046 19.8225 22.9967 19.7507C22.9887 19.6788 22.9667 19.6092 22.9318 19.5459C22.8969 19.4825 22.8499 19.4267 22.7934 19.3815ZM11.2022 8.22617L15.8355 11.8485C15.7591 9.78811 14.0789 8.14127 12 8.14127C11.7318 8.14175 11.4644 8.17021 11.2022 8.22617ZM12.7978 15.7565L8.16454 12.1341C8.2412 14.1942 9.92141 15.841 12 15.841C12.2682 15.8404 12.5355 15.8121 12.7978 15.7565ZM12 7.0413C15.391 7.0413 18.4998 8.93186 20.1786 11.9911C19.7671 12.744 19.2586 13.4398 18.6661 14.0604L19.9634 15.0745C20.6857 14.3018 21.2976 13.433 21.7818 12.4927C21.8604 12.3371 21.9014 12.1652 21.9014 11.991C21.9014 11.8167 21.8604 11.6448 21.7818 11.4893C19.916 7.85217 16.2256 5.39134 12 5.39134C10.7385 5.39134 9.53504 5.63196 8.40345 6.0379L9.99876 7.28533C10.6498 7.13755 11.3167 7.0413 12 7.0413ZM12 16.941C8.60901 16.941 5.50058 15.0504 3.82141 11.9911C4.23347 11.2382 4.74254 10.5426 5.33558 9.92217L4.03831 8.90814C3.31616 9.68068 2.70435 10.5494 2.22027 11.4896C2.14164 11.6452 2.10066 11.817 2.10066 11.9913C2.10066 12.1656 2.14164 12.3375 2.22027 12.493C4.08437 16.1301 7.77476 18.5909 12 18.5909C13.2615 18.5909 14.465 18.3486 15.5966 17.9444L14.0012 16.6973C13.3502 16.8447 12.6837 16.941 12 16.941Z"/>
</svg>
