<svg viewBox="0 0 24 24" fill="currentColor" xmlns="http://www.w3.org/2000/svg">
<path d="M12 8.20832C11.632 8.21394 11.2667 8.27094 10.9153 8.37759C11.0778 8.65632 11.1644 8.97102 11.1667 9.29166C11.1667 9.54061 11.1164 9.78714 11.0187 10.0172C10.9209 10.2472 10.7777 10.4562 10.5971 10.6322C10.4166 10.8083 10.2022 10.9479 9.96632 11.0432C9.73041 11.1384 9.47757 11.1875 9.22222 11.1875C8.89336 11.1853 8.57059 11.1009 8.28471 10.9424C8.05917 11.705 8.08546 12.5175 8.35985 13.2649C8.63425 14.0121 9.14284 14.6563 9.8136 15.1061C10.4844 15.5559 11.2832 15.7885 12.0971 15.7711C12.911 15.7535 13.6987 15.4869 14.3484 15.0087C14.9982 14.5305 15.4772 13.8652 15.7176 13.1068C15.958 12.3485 15.9475 11.5356 15.6877 10.7834C15.428 10.0311 14.932 9.37764 14.2702 8.91549C13.6083 8.45333 12.8141 8.20593 12 8.20832ZM21.8792 11.5057C19.9962 7.92361 16.2684 5.5 12 5.5C7.73159 5.5 4.00276 7.9253 2.12082 11.506C2.04138 11.6592 2 11.8285 2 12.0001C2 12.1718 2.04138 12.3411 2.12082 12.4942C4.0038 16.0764 7.73159 18.5 12 18.5C16.2684 18.5 19.9972 16.0747 21.8792 12.4939C21.9586 12.3408 22 12.1715 22 11.9998C22 11.8282 21.9586 11.6589 21.8792 11.5057ZM12 16.875C8.57465 16.875 5.43436 15.013 3.73853 12C5.43436 8.98697 8.5743 7.12499 12 7.12499C15.4257 7.12499 18.5656 8.98697 20.2615 12C18.566 15.013 15.4257 16.875 12 16.875Z"/>
</svg>
