<svg viewBox="0 0 24 24" fill="currentColor" xmlns="http://www.w3.org/2000/svg">
<path d="M20.5592 8.50062L15.125 11.8599V9.26895C15.125 8.55117 14.3074 8.11542 13.6842 8.50062L8.25 11.8599V4.41071C8.25 3.90774 7.83027 3.5 7.3125 3.5H2.9375C2.41973 3.5 2 3.90774 2 4.41071V19.5893C2 20.0923 2.41973 20.5 2.9375 20.5H21.0625C21.5803 20.5 22 20.0923 22 19.5893V9.26895C22 8.55113 21.1824 8.11542 20.5592 8.50062ZM17.7812 16.8571H16.2188C15.9599 16.8571 15.75 16.6532 15.75 16.4017V14.884C15.75 14.6325 15.9599 14.4286 16.2188 14.4286H17.7812C18.0401 14.4286 18.25 14.6325 18.25 14.884V16.4017C18.25 16.6532 18.0401 16.8571 17.7812 16.8571ZM12.7812 16.8571H11.2188C10.9599 16.8571 10.75 16.6532 10.75 16.4017V14.884C10.75 14.6325 10.9599 14.4286 11.2188 14.4286H12.7812C13.0401 14.4286 13.25 14.6325 13.25 14.884V16.4017C13.25 16.6532 13.0401 16.8571 12.7812 16.8571ZM7.78125 16.8571H6.21875C5.95988 16.8571 5.75 16.6532 5.75 16.4017V14.884C5.75 14.6325 5.95988 14.4286 6.21875 14.4286H7.78125C8.04012 14.4286 8.25 14.6325 8.25 14.884V16.4017C8.25 16.6532 8.04012 16.8571 7.78125 16.8571Z"/>
</svg>
