<svg viewBox="0 0 24 24" fill="currentColor" xmlns="http://www.w3.org/2000/svg">
<path d="M16.4667 17.8799L14.2653 15.6785C14.5991 15.1231 14.7769 14.488 14.7801 13.84C14.7801 13.1201 14.5666 12.4163 14.1666 11.8177C13.7666 11.2191 13.1981 10.7526 12.533 10.4771C11.8679 10.2016 11.136 10.1295 10.4299 10.2699C9.7238 10.4104 9.07521 10.7571 8.56614 11.2661C8.05707 11.7752 7.7104 12.4238 7.56994 13.1299C7.42949 13.836 7.50158 14.5679 7.77708 15.233C8.05259 15.8981 8.51914 16.4666 9.11774 16.8666C9.71634 17.2666 10.4201 17.4801 11.14 17.4801C11.814 17.4801 12.4371 17.2844 12.9785 16.965L15.1799 19.1667C15.2221 19.209 15.2723 19.2425 15.3275 19.2654C15.3827 19.2882 15.4419 19.3 15.5017 19.3C15.5614 19.3 15.6206 19.2882 15.6758 19.2654C15.731 19.2425 15.7812 19.209 15.8234 19.1667L16.4667 18.5234C16.509 18.4812 16.5425 18.431 16.5654 18.3758C16.5882 18.3206 16.6 18.2614 16.6 18.2017C16.6 18.1419 16.5882 18.0827 16.5654 18.0275C16.5425 17.9723 16.509 17.9221 16.4667 17.8799ZM11.14 15.66C10.7801 15.66 10.4282 15.5533 10.1289 15.3533C9.82958 15.1533 9.59631 14.8691 9.45856 14.5365C9.3208 14.204 9.28476 13.838 9.35499 13.485C9.42521 13.1319 9.59855 12.8076 9.85309 12.5531C10.1076 12.2986 10.4319 12.1252 10.785 12.055C11.138 11.9848 11.504 12.0208 11.8365 12.1586C12.1691 12.2963 12.4533 12.5296 12.6533 12.8289C12.8533 13.1282 12.96 13.4801 12.96 13.84C12.96 14.3227 12.7683 14.7857 12.427 15.127C12.0857 15.4683 11.6227 15.66 11.14 15.66Z"/>
<path d="M18.9465 5.82734L15.6695 2.55078C15.318 2.19922 14.8414 2 14.3457 2H6.37461C5.33984 2.00391 4.5 2.84375 4.5 3.87852V20.1254C4.5 21.1602 5.33984 22 6.37461 22H17.6223C18.6574 22 19.5 21.1602 19.5 20.1254V7.15508C19.5 6.65938 19.298 6.17891 18.9465 5.82734ZM14.498 4.03086L17.4703 7.00273H14.498V4.03086ZM17.625 20.1254H6.37461V3.87852H12.6234V7.94023C12.6234 8.45977 13.0414 8.87734 13.5609 8.87734H17.625V20.1254Z"/>
</svg>
