<svg viewBox="0 0 24 24" fill="currentColor" xmlns="http://www.w3.org/2000/svg">
<path d="M18.9465 5.82734L15.6695 2.55078C15.318 2.19922 14.8414 2 14.3457 2H6.37461C5.33984 2.00391 4.5 2.84375 4.5 3.87852V20.1254C4.5 21.1602 5.33984 22 6.37461 22H17.6223C18.6574 22 19.5 21.1602 19.5 20.1254V7.15508C19.5 6.65938 19.298 6.17891 18.9465 5.82734ZM14.498 4.03086L17.4703 7.00273H14.498V4.03086ZM17.625 20.1254H6.37461V3.87852H12.6234V7.94023C12.6234 8.45977 13.0414 8.87734 13.5609 8.87734H17.625V20.1254Z"/>
<path d="M12.4688 10.7527C12.7277 10.7527 12.9375 10.9625 12.9375 11.2215V14.5031H14.8465C15.2648 14.5031 15.4734 15.0102 15.1766 15.3047L12.352 18.1082C12.157 18.3016 11.8426 18.3016 11.6476 18.1082L8.82303 15.3047C8.52615 15.0098 8.73475 14.5031 9.15311 14.5031H11.0625V11.2215C11.0625 10.9625 11.2722 10.7527 11.5312 10.7527H12.4688Z"/>
</svg>
