<svg viewBox="0 0 24 24" fill="currentColor" xmlns="http://www.w3.org/2000/svg">
<path d="M15 14.7781V11.4094C15 11.1375 14.9437 10.8719 14.8375 10.6219L12.3906 4.90938C12.1531 4.35625 11.6125 4 11.0094 4H6.5C5.67188 4 5 4.67188 5 5.5V9H3.5C2.67188 9 2 9.67188 2 10.5V17C2 18.6562 3.34375 20 5 20C6.65625 20 8 18.6562 8 17H10C10 18.6562 11.3438 20 13 20C14.6562 20 16 18.6562 16 17C16 16.1156 15.6094 15.3281 15 14.7781ZM6.5 5.5H11.0094L13.4594 11.2125C13.4875 11.275 13.5 11.3406 13.5 11.4094V11.5H9.69063C9.4125 11.5 9.1375 11.4062 8.91875 11.2344L6.5 9.33125V5.5ZM5 18.5C4.17188 18.5 3.5 17.8281 3.5 17C3.5 16.1719 4.17188 15.5 5 15.5C5.82812 15.5 6.5 16.1719 6.5 17C6.5 17.8281 5.82812 18.5 5 18.5ZM10.4156 15.5H7.58437C7.06562 14.6062 6.10938 14 5 14C4.45 14 3.94375 14.1594 3.5 14.4156V10.5H5.55938L7.99375 12.4125C8.475 12.7906 9.08125 13 9.69375 13H13.5V14.05C13.3375 14.0219 13.1719 14 13 14C11.8938 14 10.9344 14.6062 10.4156 15.5ZM13 18.5C12.1719 18.5 11.5 17.8281 11.5 17C11.5 16.1719 12.1719 15.5 13 15.5C13.8281 15.5 14.5 16.1719 14.5 17C14.5 17.8281 13.8281 18.5 13 18.5ZM21.5 16.5H18.5V4.5C18.5 4.225 18.275 4 18 4H17.5C17.225 4 17 4.225 17 4.5V17.5C17 17.775 17.225 18 17.5 18H21.5C21.775 18 22 17.775 22 17.5V17C22 16.725 21.775 16.5 21.5 16.5Z"/>
</svg>
