<svg viewBox="0 0 24 24" fill="currentColor" xmlns="http://www.w3.org/2000/svg">
<path d="M7.5556 14.25C7.5556 14.8636 7.058 15.3611 6.4444 15.3611C5.8309 15.3611 5.3333 14.8636 5.3333 14.25C5.3333 13.6365 5.8309 13.1389 6.4444 13.1389C7.058 13.1389 7.5556 13.6365 7.5556 14.25ZM14.2222 15.3611C14.2222 15.7681 14.1049 16.1441 13.9139 16.4723H10.0858C9.8948 16.1441 9.7774 15.7681 9.7774 15.3611C9.7774 14.9559 9.8941 14.5813 10.0833 14.2542L7.4531 10.8726C7.1698 10.509 7.2361 9.98542 7.5986 9.70347C7.9653 9.41979 8.4861 9.48646 8.7684 9.8493L11.399 13.2313C11.5913 13.1771 11.7903 13.1386 11.9997 13.1386C13.2274 13.1389 14.2222 14.1337 14.2222 15.3611ZM10.8889 8.69444C10.8889 8.0809 11.3865 7.58333 12 7.58333C12.6135 7.58333 13.1111 8.0809 13.1111 8.69444C13.1111 9.30798 12.6135 9.80555 12 9.80555C11.3865 9.80555 10.8889 9.30798 10.8889 8.69444ZM17.5556 13.1389C18.1691 13.1389 18.6667 13.6365 18.6667 14.25C18.6667 14.8636 18.1691 15.3611 17.5556 15.3611C16.942 15.3611 16.4444 14.8636 16.4444 14.25C16.4444 13.6365 16.942 13.1389 17.5556 13.1389ZM15.8889 11.4722C15.2753 11.4722 14.7778 10.9746 14.7778 10.3611C14.7778 9.74757 15.2753 9.25 15.8889 9.25C16.5024 9.25 17 9.74757 17 10.3611C17 10.9746 16.5024 11.4722 15.8889 11.4722ZM22 14.25C22 16.0834 21.5052 17.8007 20.6437 19.2778C20.449 19.6118 20.0778 19.8056 19.691 19.8056H4.309C3.9222 19.8056 3.551 19.6118 3.3562 19.2778C2.4948 17.8007 2 16.0834 2 14.25C2 8.72708 6.4771 4.25 12 4.25C17.5229 4.25 22 8.72708 22 14.25ZM20.3333 14.25C20.3333 9.65486 16.5951 5.91667 12 5.91667C7.4049 5.91667 3.6667 9.65486 3.6667 14.25C3.6667 15.6084 3.9986 16.9455 4.6295 18.1389H19.3705C20.0014 16.9455 20.3333 15.6084 20.3333 14.25Z"/>
</svg>
