<svg viewBox="0 0 24 24" fill="currentColor" xmlns="http://www.w3.org/2000/svg">
<path d="M16.4444 14.25C16.4444 14.8636 16.942 15.3611 17.5556 15.3611C18.1691 15.3611 18.6667 14.8636 18.6667 14.25C18.6667 13.6365 18.1691 13.1389 17.5556 13.1389C16.942 13.1389 16.4444 13.6365 16.4444 14.25ZM9.77778 15.3611C9.77778 15.7681 9.89514 16.1441 10.0861 16.4723H13.9142C14.1052 16.1441 14.2226 15.7681 14.2226 15.3611C14.2226 14.9559 14.1059 14.5813 13.9167 14.2542L16.5469 10.8726C16.8302 10.509 16.7639 9.98542 16.4014 9.70347C16.0347 9.41979 15.5139 9.48646 15.2316 9.8493L12.601 13.2313C12.4087 13.1771 12.2097 13.1386 12.0003 13.1386C10.7726 13.1389 9.77778 14.1337 9.77778 15.3611ZM13.1111 8.69444C13.1111 8.0809 12.6135 7.58333 12 7.58333C11.3865 7.58333 10.8889 8.0809 10.8889 8.69444C10.8889 9.30798 11.3865 9.80555 12 9.80555C12.6135 9.80555 13.1111 9.30798 13.1111 8.69444ZM6.44444 13.1389C5.8309 13.1389 5.33333 13.6365 5.33333 14.25C5.33333 14.8636 5.8309 15.3611 6.44444 15.3611C7.05799 15.3611 7.55556 14.8636 7.55556 14.25C7.55556 13.6365 7.05799 13.1389 6.44444 13.1389ZM8.11111 11.4722C8.72465 11.4722 9.22222 10.9746 9.22222 10.3611C9.22222 9.74757 8.72465 9.25 8.11111 9.25C7.49757 9.25 7 9.74757 7 10.3611C7 10.9746 7.49757 11.4722 8.11111 11.4722ZM2 14.25C2 16.0834 2.49479 17.8007 3.35625 19.2778C3.55104 19.6118 3.92222 19.8056 4.30903 19.8056H19.691C20.0778 19.8056 20.449 19.6118 20.6438 19.2778C21.5052 17.8007 22 16.0834 22 14.25C22 8.72708 17.5229 4.25 12 4.25C6.47708 4.25 2 8.72708 2 14.25ZM3.66667 14.25C3.66667 9.65486 7.40486 5.91667 12 5.91667C16.5951 5.91667 20.3333 9.65486 20.3333 14.25C20.3333 15.6084 20.0014 16.9455 19.3705 18.1389H4.62951C3.99861 16.9455 3.66667 15.6084 3.66667 14.25Z"/>
</svg>
