<svg viewBox="0 0 24 24" fill="currentColor" xmlns="http://www.w3.org/2000/svg">
<path d="M21.799 11.664L19.7768 9.79321V6.06178C19.7768 5.97889 19.7475 5.8994 19.6954 5.84079C19.6433 5.78219 19.5727 5.74926 19.499 5.74926H18.3879C18.3152 5.74976 18.2456 5.78227 18.194 5.83981C18.1424 5.89736 18.1129 5.97536 18.1118 6.05709V8.25329L13.2445 3.75697C12.8948 3.42938 12.4541 3.25 11.999 3.25C11.5439 3.25 11.1032 3.42938 10.7535 3.75697L2.199 11.664C2.14305 11.7167 2.09687 11.7812 2.06309 11.854C2.02932 11.9268 2.00862 12.0063 2.00217 12.0881C1.99573 12.1698 2.00366 12.2522 2.02551 12.3306C2.04737 12.4089 2.08272 12.4816 2.12955 12.5445L2.48511 13.025C2.57967 13.152 2.71519 13.2316 2.86188 13.2463C3.00857 13.2609 3.15443 13.2094 3.2674 13.1031L4.22122 12.2218V19.4999C4.22204 19.8312 4.33937 20.1486 4.54757 20.3828C4.75576 20.6171 5.0379 20.7491 5.33233 20.75H9.77678C10.0712 20.7491 10.3533 20.6171 10.5615 20.3828C10.7697 20.1486 10.8871 19.8312 10.8879 19.4999V15.4372H13.1101V19.4999C13.1109 19.8312 13.2283 20.1486 13.4365 20.3828C13.6447 20.6171 13.9268 20.7491 14.2212 20.75H18.6657C18.9587 20.7493 19.2397 20.6187 19.4477 20.3864C19.6557 20.1541 19.7739 19.839 19.7768 19.5093V12.2211L20.7327 13.1047C20.8457 13.211 20.9915 13.2625 21.1382 13.2478C21.2849 13.2332 21.4204 13.1536 21.515 13.0266L21.8702 12.5465C21.9172 12.4834 21.9526 12.4104 21.9745 12.3318C21.9964 12.2533 22.0042 12.1706 21.9976 12.0886C21.991 12.0066 21.97 11.9269 21.936 11.854C21.9019 11.7811 21.8553 11.7166 21.799 11.664ZM18.1049 18.8749H14.7768V14.8122C14.776 14.481 14.6586 14.1635 14.4504 13.9293C14.2422 13.6951 13.9601 13.5631 13.6657 13.5621H10.3323C10.0379 13.5631 9.75576 13.6951 9.54757 13.9293C9.33937 14.1635 9.22204 14.481 9.22122 14.8122V18.8749H5.88789V10.6819L11.999 5.03243L18.1101 10.6796L18.1049 18.8749Z"/>
</svg>
