<svg viewBox="0 0 24 24" fill="currentColor" xmlns="http://www.w3.org/2000/svg">
<path d="M8.68749 5.89219C8.84764 4.38945 10.1172 3.25 11.6289 3.25C13.3867 3.25 14.7539 4.77422 14.5664 6.52344L14.0625 11.2344C13.9023 12.7344 12.6328 13.875 11.1211 13.875C9.36327 13.875 7.99608 12.3164 8.18358 10.6016L8.68749 5.89219ZM11.6289 5.125C11.0742 5.125 10.6094 5.54219 10.5508 6.09375L10.0117 10.8008C9.97655 11.4414 10.4805 12 11.1211 12C11.6758 12 12.1406 11.582 12.1992 11.0312L12.7031 6.32422C12.7734 5.68281 12.2695 5.125 11.6289 5.125ZM6.62499 3.4293C6.89452 3.62695 7.03514 3.95469 6.99218 4.28867L5.74296 14.2891C5.67851 14.8047 5.21015 15.1758 4.69608 15.1211C4.18241 15.0625 3.81796 14.6016 3.88241 14.0859L4.92929 5.71055L3.61913 6.29297C3.14296 6.50391 2.59179 6.29297 2.3882 5.8207C2.18441 5.34805 2.40507 4.79375 2.88124 4.58203L5.69374 3.33203C6.0039 3.19492 6.35936 3.23203 6.62499 3.4293ZM21.8125 6.45703L21.5273 9.91016C21.3984 11.4453 20.1172 12.625 18.5742 12.625C16.8086 12.625 15.4804 11.1445 15.625 9.41797L15.9101 5.96484C16.039 4.43086 17.3242 3.25 18.8633 3.25C20.5937 3.25 21.957 4.73086 21.8125 6.45703ZM17.4922 9.57422C17.4375 10.207 17.9375 10.75 18.5742 10.75C19.1406 10.75 19.6093 10.3164 19.6562 9.75391L19.9453 6.30078C20 5.66836 19.4648 5.08984 18.8633 5.08984C18.2969 5.08984 17.8281 5.5582 17.7461 6.12109L17.4922 9.57422ZM21.9883 14.6523C22.0742 15.1289 21.7304 15.6484 21.2226 15.7383L3.09687 18.8633C2.58671 18.9492 2.10175 18.6055 2.01378 18.0977C1.92581 17.5859 2.26812 17.1016 2.77851 17.0117L20.9023 13.8867C21.3789 13.8008 21.8984 14.1445 21.9883 14.6523ZM10.5898 20.7383C10.082 20.8242 9.59764 20.4766 9.5117 19.9648C9.42967 19.457 9.73827 18.9727 10.2851 18.8867L19.6601 17.3242C20.1679 17.2383 20.6523 17.5508 20.7383 18.0977C20.8242 18.6055 20.4765 19.0898 19.9648 19.1758L10.5898 20.7383Z"/>
</svg>
