<svg viewBox="0 0 24 24" fill="currentColor" xmlns="http://www.w3.org/2000/svg">
<path d="M6.62091 7.34296C6.62091 6.74482 7.1058 6.25993 7.70394 6.25993C8.30208 6.25993 8.78697 6.74482 8.78697 7.34296V12.3971C8.78697 12.9953 8.30208 13.4801 7.70394 13.4801C7.1058 13.4801 6.62091 12.9953 6.62091 12.3971V7.34296Z"/>
<path d="M10.8809 7.34296C10.8809 6.74482 11.3657 6.25993 11.9639 6.25993C12.562 6.25993 13.0469 6.74482 13.0469 7.34296V10.9531C13.0469 11.5512 12.562 12.0361 11.9639 12.0361C11.3657 12.0361 10.8809 11.5512 10.8809 10.9531V7.34296Z"/>
<path d="M15.213 7.34296C15.213 6.74482 15.6979 6.25993 16.296 6.25993C16.8942 6.25993 17.3791 6.74482 17.3791 7.34296V15.213C17.3791 15.8111 16.8942 16.296 16.296 16.296C15.6979 16.296 15.213 15.8111 15.213 15.213V7.34296Z"/>
<path fill-rule="evenodd" clip-rule="evenodd" d="M4.67148 2C3.19606 2 2 3.19606 2 4.67148V19.3285C2 20.8039 3.19606 22 4.67148 22H19.3285C20.8039 22 22 20.8039 22 19.3285V4.67148C22 3.19606 20.8039 2 19.3285 2H4.67148ZM4.67148 4.16607C4.39235 4.16607 4.16607 4.39235 4.16607 4.67148V19.3285C4.16607 19.6077 4.39235 19.8339 4.67148 19.8339H19.3285C19.6077 19.8339 19.8339 19.6077 19.8339 19.3285V4.67148C19.8339 4.39235 19.6077 4.16607 19.3285 4.16607H4.67148Z"/>
</svg>
