<svg viewBox="0 0 24 24" fill="currentColor" xmlns="http://www.w3.org/2000/svg">
<path fill-rule="evenodd" clip-rule="evenodd" d="M6.25019 3.02005C5.78271 3.09899 5.46653 3.39945 5.37106 3.85549C5.31909 4.10355 5.31985 16.5504 5.37182 16.7987C5.45328 17.1879 5.74231 17.4931 6.12832 17.5974C6.30504 17.6452 8.80412 17.6452 8.98083 17.5974C9.35485 17.4963 9.63986 17.2077 9.74 16.8288C9.7942 16.6237 9.78833 3.96869 9.73392 3.78298C9.62905 3.42479 9.3895 3.17877 9.02026 3.05001C8.89323 3.0057 6.48914 2.97969 6.25019 3.02005ZM3.43108 4.15666C2.76516 4.25568 2.27759 4.69072 2.06367 5.37662L2.0098 5.54942L2.00181 12.4355C1.99671 16.8635 2.00247 19.3878 2.01794 19.5068C2.10679 20.1914 2.50932 20.6956 3.14635 20.9201L3.3733 21H12.004H20.6347L20.8639 20.9193C21.409 20.7274 21.7293 20.4033 21.9197 19.851L22 19.6179V12.5713V5.52473L21.9205 5.2941C21.7272 4.73371 21.3591 4.37646 20.7932 4.19998L20.6103 4.14297L15.7529 4.1361L10.8954 4.12928L10.8879 10.4667C10.8797 17.365 10.8896 16.8627 10.7529 17.2613C10.4967 18.0078 9.87914 18.5386 9.05399 18.7215C8.84349 18.7682 6.26567 18.7682 6.05517 18.7215C5.25191 18.5435 4.62905 18.0158 4.37929 17.3018C4.21599 16.8351 4.22978 17.432 4.22126 10.4548L4.21349 4.13022L3.89091 4.13324C3.71348 4.13489 3.50657 4.14539 3.43108 4.15666ZM19.7936 8.06692V9.7576H16.4535H13.1133V8.06692V6.37623H16.4535H19.7936V8.06692ZM15.0153 12.0584C15.3127 12.1963 15.3442 12.2971 15.3442 13.1143C15.3442 14.2355 15.318 14.2619 14.2104 14.2619C13.1627 14.2619 13.1346 14.2351 13.1187 13.2197C13.1045 12.3072 13.1702 12.1225 13.5422 12.0302C13.7096 11.9886 14.9145 12.0116 15.0153 12.0584ZM19.3523 12.0301C19.7253 12.111 19.7794 12.2397 19.7892 13.071C19.803 14.2286 19.7743 14.26 18.6965 14.2612C17.5979 14.2624 17.575 14.2394 17.575 13.133C17.575 12.042 17.6042 12.0118 18.6648 12.0064C18.9869 12.0048 19.2829 12.015 19.3523 12.0301ZM14.9697 16.549C15.294 16.6473 15.3442 16.7954 15.3442 17.6557C15.3442 18.7458 15.3097 18.7777 14.1495 18.7624C13.1378 18.749 13.1007 18.7054 13.1187 17.5488C13.1306 16.7885 13.1728 16.6689 13.4673 16.5598C13.593 16.5132 14.8225 16.5043 14.9697 16.549ZM19.4015 16.5444C19.7423 16.6434 19.7814 16.7566 19.7813 17.6433C19.7811 18.7486 19.7638 18.7664 18.6859 18.7664C17.9966 18.7664 17.8766 18.747 17.7462 18.6151C17.5862 18.4531 17.5871 18.4588 17.5871 17.6433V16.9029L17.6553 16.7854C17.7288 16.6589 17.7918 16.6071 17.9348 16.5554C18.0453 16.5155 19.2703 16.5063 19.4015 16.5444Z"/>
</svg>
