<svg viewBox="0 0 24 24" fill="currentColor" xmlns="http://www.w3.org/2000/svg">
<path fill-rule="evenodd" clip-rule="evenodd" d="M15.2112 16.3931C13.8173 17.5265 12.0394 18.2058 10.1029 18.2058C5.6278 18.2058 2 14.578 2 10.1029C2 5.6278 5.6278 2 10.1029 2C14.578 2 18.2058 5.6278 18.2058 10.1029C18.2058 12.0249 17.5367 13.7905 16.4187 15.1796L21.7778 20.5388C22.1121 20.8731 22.1121 21.415 21.7778 21.7493C21.4436 22.0836 20.9016 22.0836 20.5674 21.7493L15.2112 16.3931ZM16.4939 10.1029C16.4939 13.6326 13.6326 16.4939 10.1029 16.4939C6.57324 16.4939 3.71188 13.6326 3.71188 10.1029C3.71188 6.57324 6.57324 3.71188 10.1029 3.71188C13.6326 3.71188 16.4939 6.57324 16.4939 10.1029Z"/>
<path fill-rule="evenodd" clip-rule="evenodd" d="M9.4753 6.03719C9.4753 5.6984 9.74994 5.42377 10.0887 5.42377C10.4275 5.42377 10.7022 5.69841 10.7022 6.03719V6.70951C11.0968 6.7608 11.4502 6.85251 11.7011 6.94605C12.0185 7.06441 12.1799 7.4177 12.0615 7.73514C11.9432 8.05257 11.5899 8.21395 11.2724 8.09559C10.9246 7.96588 10.2469 7.8362 9.67963 7.92224C9.40221 7.96432 9.20289 8.0502 9.07592 8.16119C8.96622 8.2571 8.8676 8.40762 8.84702 8.6915C8.84559 8.77827 8.87142 8.87709 9.13445 9.02686C9.40589 9.18142 9.77443 9.29736 10.2328 9.44157L10.3621 9.48231C10.8309 9.63036 11.4071 9.81812 11.8394 10.1313C12.0663 10.2957 12.2806 10.5127 12.4193 10.8028C12.5609 11.0991 12.6027 11.4284 12.5498 11.7781L12.5481 11.7896L12.5459 11.801C12.4346 12.3866 12.1355 12.8258 11.7085 13.1111C11.3989 13.3178 11.0481 13.4268 10.7022 13.4761V14.1686C10.7022 14.5074 10.4275 14.7821 10.0887 14.7821C9.74994 14.7821 9.4753 14.5074 9.4753 14.1686V13.4512C8.89403 13.3605 8.34978 13.178 7.96924 12.9957C7.66369 12.8494 7.5346 12.4831 7.68093 12.1775C7.82724 11.872 8.19356 11.7429 8.49912 11.8892C8.93821 12.0995 9.6827 12.3092 10.3182 12.2808C10.6313 12.2669 10.8677 12.1973 11.027 12.0909C11.1659 11.9981 11.2845 11.8535 11.3383 11.5837C11.356 11.4552 11.3357 11.3807 11.3123 11.3318C11.2853 11.2753 11.2311 11.2056 11.1196 11.1248C10.875 10.9476 10.4949 10.8108 9.9926 10.6522C9.94724 10.6379 9.90064 10.6233 9.85311 10.6084L9.84803 10.6069C9.42261 10.4739 8.92118 10.3172 8.52738 10.093C8.06286 9.82848 7.59565 9.37955 7.62111 8.64094L7.62143 8.63159L7.62204 8.62226C7.66021 8.03553 7.89043 7.568 8.26845 7.23753C8.62464 6.92615 9.06481 6.77728 9.4753 6.71242V6.03719Z"/>
</svg>
