<svg viewBox="0 0 24 24" fill="currentColor" xmlns="http://www.w3.org/2000/svg">
<path fill-rule="evenodd" clip-rule="evenodd" d="M15.2112 16.3931C13.8173 17.5265 12.0394 18.2058 10.1029 18.2058C5.6278 18.2058 2 14.578 2 10.1029C2 5.6278 5.6278 2 10.1029 2C14.578 2 18.2058 5.6278 18.2058 10.1029C18.2058 12.0249 17.5367 13.7905 16.4187 15.1796L21.7778 20.5388C22.1121 20.8731 22.1121 21.415 21.7778 21.7493C21.4436 22.0836 20.9016 22.0836 20.5674 21.7493L15.2112 16.3931ZM16.4939 10.1029C16.4939 13.6326 13.6326 16.4939 10.1029 16.4939C6.57324 16.4939 3.71188 13.6326 3.71188 10.1029C3.71188 6.57324 6.57324 3.71188 10.1029 3.71188C13.6326 3.71188 16.4939 6.57324 16.4939 10.1029Z"/>
</svg>
