<svg viewBox="0 0 24 24" fill="currentColor" xmlns="http://www.w3.org/2000/svg">
<path d="M2 5.5C2 5.22385 2.22386 5 2.5 5H21.5C21.7761 5 22 5.22385 22 5.5V6.8C22 7.07614 21.7761 7.3 21.5 7.3H2.5C2.22386 7.3 2 7.07614 2 6.8V5.5Z"/>
<path d="M2 11.35C2 11.0739 2.22386 10.85 2.5 10.85H21.5C21.7761 10.85 22 11.0739 22 11.35V12.65C22 12.9261 21.7761 13.15 21.5 13.15H2.5C2.22386 13.15 2 12.9261 2 12.65V11.35Z"/>
<path d="M2 17.2C2 16.9239 2.22386 16.7 2.5 16.7H21.5C21.7761 16.7 22 16.9239 22 17.2V18.5C22 18.7761 21.7761 19 21.5 19H2.5C2.22386 19 2 18.7761 2 18.5V17.2Z"/>
</svg>
