<svg viewBox="0 0 24 24" fill="currentColor" xmlns="http://www.w3.org/2000/svg">
<path d="M19.0714 9.50001H17.7857V7.6797C17.7857 4.57032 15.2143 2.00783 12.016 2.00002C8.81786 1.99221 6.21429 4.51954 6.21429 7.62501V9.50001H4.92857C3.86384 9.50001 3 10.3399 3 11.375V20.125C3 21.1602 3.86384 22 4.92857 22H19.0714C20.1362 22 21 21.1602 21 20.125V11.375C21 10.3399 20.1362 9.50001 19.0714 9.50001ZM8.14286 7.62501C8.14286 5.55861 9.87455 3.87501 12 3.87501C14.1254 3.87501 15.8571 5.55861 15.8571 7.62501V9.50001H8.14286V7.62501ZM19.0714 20.125H4.92857V11.375H19.0714V20.125Z"/>
</svg>
