<svg viewBox="0 0 24 24" fill="currentColor" xmlns="http://www.w3.org/2000/svg">
<path fill-rule="evenodd" clip-rule="evenodd" d="M17.7857 9.50001H19.0714C20.1362 9.50001 21 10.3399 21 11.375V20.125C21 21.1602 20.1362 22 19.0714 22H4.92857C3.86384 22 3 21.1602 3 20.125V11.375C3 10.3399 3.86384 9.50001 4.92857 9.50001H6.21429V7.62501C6.21429 4.51954 8.81786 1.99221 12.016 2.00002C15.2143 2.00783 17.7857 4.57032 17.7857 7.6797V9.50001ZM12 3.87501C9.87455 3.87501 8.14286 5.55861 8.14286 7.62501V9.50001H15.8571V7.62501C15.8571 5.55861 14.1254 3.87501 12 3.87501ZM12 13C11.1716 13 10.5 13.6716 10.5 14.5V17.5C10.5 18.3284 11.1716 19 12 19C12.8284 19 13.5 18.3284 13.5 17.5V14.5C13.5 13.6716 12.8284 13 12 13Z"/>
</svg>
