<svg viewBox="0 0 24 24" fill="currentColor" xmlns="http://www.w3.org/2000/svg">
<path d="M16.1667 5.57143L18.5 5.57143C19.1442 5.57143 19.6667 6.14722 19.6667 6.85714L19.6667 17.1429C19.6667 17.8528 19.1442 18.4286 18.5 18.4286L16.1667 18.4286C15.5224 18.4286 15 19.0043 15 19.7143C15 20.4242 15.5213 21 16.1667 21L18.5 21C20.433 21 22 19.2731 22 17.1429L22 6.85714C22 4.72687 20.433 3 18.5 3L16.1667 3C15.5224 3 15 3.57579 15 4.28571C15 4.99564 15.5214 5.57143 16.1667 5.57143Z"/>
<path d="M10.5356 6.35158L15.6268 11.1519C16.124 11.6207 16.124 12.3782 15.6295 12.8481L10.5384 17.6484C10.0413 18.1172 9.23584 18.1172 8.73864 17.6484C8.24144 17.1796 8.24144 16.4202 8.73864 15.9514L11.6573 13.1995H3.27279C2.56918 13.1995 2 12.6632 2 11.9994C2 11.3356 2.56877 10.7993 3.27279 10.7993H11.6573L8.73579 8.04856C8.23869 7.57978 8.23869 6.82036 8.73579 6.35158C9.23258 5.88318 10.038 5.88243 10.5356 6.35158Z"/>
</svg>
