<svg viewBox="0 0 24 24" fill="currentColor" xmlns="http://www.w3.org/2000/svg">
<path d="M7.83333 18.4286H5.5C4.85579 18.4286 4.33333 17.8528 4.33333 17.1429V6.85714C4.33333 6.14719 4.85579 5.57143 5.5 5.57143H7.83333C8.47756 5.57143 9 4.99567 9 4.28571C9 3.57576 8.47865 3 7.83333 3H5.5C3.56698 3 2 4.72688 2 6.85714V17.1429C2 19.2731 3.56698 21 5.5 21H7.83333C8.47756 21 9 20.4242 9 19.7143C9 19.0044 8.47865 18.4286 7.83333 18.4286Z"/>
<path d="M16.5356 6.35158L21.6268 11.1519C22.124 11.6207 22.124 12.3782 21.6295 12.8481L16.5384 17.6484C16.0413 18.1172 15.2358 18.1172 14.7386 17.6484C14.2414 17.1796 14.2414 16.4202 14.7386 15.9514L17.6573 13.1995H9.27279C8.56918 13.1995 8 12.6632 8 11.9994C8 11.3356 8.56877 10.7993 9.27279 10.7993H17.6573L14.7358 8.04856C14.2387 7.57978 14.2387 6.82036 14.7358 6.35158C15.2326 5.88318 16.038 5.88243 16.5356 6.35158Z"/>
</svg>
