<svg viewBox="0 0 24 24" fill="currentColor" xmlns="http://www.w3.org/2000/svg">
<path d="M11.6404 21.312C10.616 19.8269 9.74548 18.5869 9.0059 17.5333C7.68492 15.6515 6.7816 14.3648 6.1647 13.339C5.68985 12.5494 5.40358 11.9437 5.23271 11.3667C5.06298 10.7936 5 10.2247 5 9.5C5 5.63399 8.13399 2.5 12 2.5C15.866 2.5 19 5.63399 19 9.5C19 10.2247 18.937 10.7936 18.7673 11.3667C18.5964 11.9437 18.3102 12.5494 17.8353 13.339C17.2184 14.3648 16.3151 15.6516 14.9941 17.5334C14.2545 18.587 13.3839 19.8271 12.3594 21.3123C12.1857 21.5627 11.8139 21.5625 11.6404 21.312Z" stroke="black"/>
<path d="M12.025 11.75C13.4748 11.75 14.65 10.5748 14.65 9.125C14.65 7.67524 13.4748 6.5 12.025 6.5C10.5753 6.5 9.40002 7.67524 9.40002 9.125C9.40002 10.5748 10.5753 11.75 12.025 11.75Z" stroke="black"/>
</svg>
