<svg viewBox="0 0 24 24" fill="currentColor" xmlns="http://www.w3.org/2000/svg">
<path fill-rule="evenodd" clip-rule="evenodd" d="M21.6942 16.6091C21.7824 16.5231 21.8527 16.4206 21.9012 16.3074C21.9497 16.1942 21.9755 16.0725 21.977 15.9494C21.9785 15.8262 21.9557 15.704 21.91 15.5896C21.8643 15.4753 21.7965 15.371 21.7104 15.2829C21.6244 15.1947 21.5219 15.1244 21.4087 15.0759C21.2955 15.0274 21.1738 15.0016 21.0507 15.0001C20.9275 14.9986 20.8053 15.0214 20.6909 15.0671C20.5766 15.1128 20.4723 15.1806 20.3842 15.2667L15.3517 20.1817L13.578 18.4004C13.4005 18.2345 13.1657 18.1438 12.9228 18.1477C12.6799 18.1515 12.4479 18.2494 12.2758 18.4209C12.1038 18.5923 12.0049 18.8239 12.0002 19.0668C11.9954 19.3096 12.0852 19.5449 12.2504 19.7229L14.6792 22.1604C14.8534 22.3354 15.0896 22.4346 15.3365 22.4365C15.5834 22.4384 15.8211 22.3427 15.998 22.1704L21.6942 16.6079V16.6091Z"/>
<path d="M7.1 8.2C6.76863 8.2 6.5 7.93137 6.5 7.6C6.5 7.26863 6.76863 7 7.1 7H15.9C16.2314 7 16.5 7.26863 16.5 7.6C16.5 7.93137 16.2314 8.2 15.9 8.2H7.1Z"/>
<path d="M7.1 11.9C6.76863 11.9 6.5 11.6314 6.5 11.3C6.5 10.9686 6.76863 10.7 7.1 10.7H15.9C16.2314 10.7 16.5 10.9686 16.5 11.3C16.5 11.6314 16.2314 11.9 15.9 11.9H7.1Z"/>
<path d="M7.1 15.7C6.76863 15.7 6.5 15.4314 6.5 15.1C6.5 14.7686 6.76863 14.5 7.1 14.5H12.2C12.5314 14.5 12.8 14.7686 12.8 15.1C12.8 15.4314 12.5314 15.7 12.2 15.7H7.1Z"/>
<path fill-rule="evenodd" clip-rule="evenodd" d="M16.8673 2.01432L6.10401 2C4.68703 2 4 2.99902 4 4.29062V19.6664C4 20.9635 4.78722 22 6.10401 22H10V20.7688H6.39027C5.78913 20.7688 5.25954 20.413 5.25954 19.8095V4.20473C5.25954 3.5995 5.78913 3.2312 6.39027 3.2312L16.667 3.24553C17.261 3.24553 17.7405 3.64954 17.7405 4.20473V14H19V4.29062C19 2.99902 18.1627 2.01432 16.8673 2.01432Z"/>
</svg>
