<svg viewBox="0 0 24 24" fill="currentColor" xmlns="http://www.w3.org/2000/svg">
<path fill-rule="evenodd" clip-rule="evenodd" d="M17.3673 2.01432L6.60401 2C5.18703 2 4.5 2.99902 4.5 4.29062V19.6664C4.5 20.9635 5.28722 22 6.60401 22H17.3673C18.7629 22 19.5 21.0135 19.5 19.6664V4.29062C19.5 2.99902 18.6627 2.01432 17.3673 2.01432ZM17.167 3.24553L6.89027 3.2312C6.28913 3.2312 5.75954 3.5995 5.75954 4.20473V19.8095C5.75954 20.413 6.28913 20.7688 6.89027 20.7688H17.167C17.8111 20.7688 18.2405 20.363 18.2405 19.8095V4.20473C18.2405 3.64954 17.761 3.24553 17.167 3.24553Z"/>
<path d="M7.6 8.2C7.26863 8.2 7 7.93137 7 7.6C7 7.26863 7.26863 7 7.6 7H16.4C16.7314 7 17 7.26863 17 7.6C17 7.93137 16.7314 8.2 16.4 8.2H7.6Z"/>
<path d="M7.6 11.9C7.26863 11.9 7 11.6314 7 11.3C7 10.9686 7.26863 10.7 7.6 10.7H16.4C16.7314 10.7 17 10.9686 17 11.3C17 11.6314 16.7314 11.9 16.4 11.9H7.6Z"/>
<path d="M7.6 15.7C7.26863 15.7 7 15.4314 7 15.1C7 14.7686 7.26863 14.5 7.6 14.5H12.7C13.0314 14.5 13.3 14.7686 13.3 15.1C13.3 15.4314 13.0314 15.7 12.7 15.7H7.6Z"/>
</svg>
