<svg viewBox="0 0 24 24" fill="currentColor" xmlns="http://www.w3.org/2000/svg">
<path d="M12 20C12.5523 20 13 19.5523 13 19C13 18.4477 12.5523 18 12 18C11.4477 18 11 18.4477 11 19C11 19.5523 11.4477 20 12 20Z"/>
<path fill-rule="evenodd" clip-rule="evenodd" d="M16.4545 2H7.54545C6.13949 2 5 3.11914 5 4.5V19.5C5 20.8809 6.13949 22 7.54545 22H16.4545C17.8606 22 19 20.8809 19 19.5V4.5C19 3.11914 17.8585 2 16.4545 2ZM7.54545 3H16.4545C17.3238 3 18 3.68884 18 4.5V19.5C18 20.3117 17.3253 21 16.4545 21H7.54545C6.6747 21 6 20.3117 6 19.5V4.5C6 3.68833 6.67471 3 7.54545 3Z"/>
</svg>
