<svg viewBox="0 0 24 24" fill="currentColor" xmlns="http://www.w3.org/2000/svg">
<path d="M6.5 13H17.5C17.775 13 18 12.775 18 12.5V4.5C18 4.225 17.775 4 17.5 4H6.5C6.225 4 6 4.225 6 4.5V12.5C6 12.775 6.225 13 6.5 13ZM7.5 5.5H10V8L12 7L14 8V5.5H16.5V11.5H7.5V5.5ZM21.5 15.5C21.775 15.5 22 15.275 22 15V14.5C22 14.225 21.775 14 21.5 14H2.5C2.225 14 2 14.225 2 14.5V15C2 15.275 2.225 15.5 2.5 15.5H4V18.5H2.5C2.225 18.5 2 18.725 2 19V19.5C2 19.775 2.225 20 2.5 20H21.5C21.775 20 22 19.775 22 19.5V19C22 18.725 21.775 18.5 21.5 18.5H20V15.5H21.5ZM7.5 18.5H5.5V15.5H7.5V18.5ZM15 18.5H9V15.5H15V18.5ZM18.5 18.5H16.5V15.5H18.5V18.5Z"/>
</svg>
