<svg viewBox="0 0 24 24" fill="currentColor" xmlns="http://www.w3.org/2000/svg">
<path d="M19.1858 2.25294L2.9358 11.624C1.59205 12.4013 1.72096 14.3896 3.15846 14.9795L7.62331 16.8271V20.124C7.62331 21.9365 9.93581 22.6826 11.0061 21.2412L12.7171 18.9326L17.0882 20.7373C17.3186 20.831 17.5608 20.8779 17.803 20.8779C18.1233 20.8779 18.4397 20.7959 18.7249 20.6357C19.2249 20.3545 19.5686 19.8545 19.6585 19.2881L21.9788 4.16309C22.2171 2.59669 20.5374 1.4756 19.1858 2.25294ZM9.49831 20.124V17.6006L10.928 18.1904L9.49831 20.124ZM17.803 19.0029L11.7952 16.5224L17.2718 8.62013C17.6897 8.01466 16.9007 7.31153 16.346 7.792L8.08424 14.9912L3.8733 13.249L20.1233 3.87403L17.803 19.0029Z"/>
</svg>
