<svg viewBox="0 0 24 24" fill="currentColor" xmlns="http://www.w3.org/2000/svg">
<path d="M4.68781 20.2995C2.43761 18.0334 2.43718 14.3651 4.68781 12.0986L13.4167 3.30796C15.1485 1.56401 17.9663 1.56401 19.698 3.30796C21.4338 5.05596 21.4342 7.88553 19.698 9.6339L12.3481 17.0359C11.1296 18.2629 9.14699 18.2629 7.92858 17.0359C6.70741 15.8061 6.70699 13.8151 7.92858 12.585L14.1534 6.31604C14.3352 6.13296 14.63 6.13296 14.8118 6.31604L15.47 6.97897C15.6517 7.16202 15.6517 7.45878 15.47 7.64182L9.24502 13.9108C8.75142 14.4078 8.75119 15.2127 9.24502 15.71C9.73754 16.2059 10.539 16.206 11.0316 15.7099L18.3816 8.308C19.3897 7.2928 19.3899 5.6494 18.3816 4.63393C17.3757 3.62089 15.739 3.62096 14.7331 4.63393L6.00429 13.4245C4.4817 14.9578 4.48135 17.44 6.00425 18.9736C7.52823 20.5084 9.99548 20.5083 11.5192 18.9725C14.0518 16.4199 16.5849 13.8677 19.1184 11.316C19.3002 11.1329 19.5949 11.133 19.7767 11.3162L20.4349 11.9791C20.6167 12.1621 20.6168 12.4587 20.435 12.6418C17.9016 15.1934 15.3687 17.7454 12.8362 20.2979C10.5849 22.5671 6.93951 22.5671 4.68781 20.2995Z"/>
</svg>
