<svg viewBox="0 0 24 24" fill="currentColor" xmlns="http://www.w3.org/2000/svg">
<path d="M6.2759 11.533L11.5328 6.27687L9.80942 4.55347L7.40009 6.9628C7.37136 6.99158 7.33723 7.01442 7.29967 7.03C7.2621 7.04559 7.22182 7.05361 7.18115 7.05361C7.14048 7.05361 7.10021 7.04559 7.06264 7.03C7.02507 7.01442 6.99094 6.99158 6.96221 6.9628L6.52433 6.52491C6.40324 6.40382 6.40324 6.20773 6.52433 6.08703L8.93366 3.6777L7.61962 2.36327C7.13565 1.8793 6.35129 1.8793 5.86731 2.36327L2.36308 5.8675C1.8795 6.35148 1.87911 7.13584 2.36308 7.61981L6.2759 11.533ZM21.4502 6.97061C22.183 6.23781 22.1826 5.04994 21.4502 4.31714L19.6827 2.5496C18.9499 1.8168 17.7616 1.8168 17.0284 2.5496L15.2308 4.34683L19.6526 8.76862L21.4502 6.97061ZM14.3468 5.23119L2.7455 16.831L2.0127 21.0278C1.91387 21.5938 2.40683 22.0867 2.97323 21.9871L7.17041 21.2512L18.7686 9.65259L14.3468 5.23119ZM21.6369 16.3806L20.3229 15.0665L17.9136 17.4759C17.7925 17.597 17.5964 17.597 17.4757 17.4759L17.0378 17.038C16.9171 16.9169 16.9171 16.7208 17.0378 16.6001L19.4471 14.1908L17.7229 12.4666L12.466 17.7227L16.3804 21.6367C16.8644 22.1207 17.6487 22.1207 18.1327 21.6367L21.6369 18.1329C22.1209 17.6489 22.1209 16.8646 21.6369 16.3806Z"/>
</svg>
