<svg viewBox="0 0 24 24" fill="currentColor" xmlns="http://www.w3.org/2000/svg">
<path d="M20.2831 5.58837L18.3896 3.6956C17.4622 2.76821 15.9611 2.76807 15.0335 3.69556L3.87574 14.7805L3.01156 20.0186C2.91752 20.5886 3.41122 21.0825 3.98142 20.9884L9.21952 20.1242L20.3052 8.96643C21.2309 8.04073 21.2397 6.5449 20.2831 5.58837ZM7.24138 13.6172L13.227 7.67032L16.3296 10.7729L10.3828 16.7586V15.3047H8.6953V13.6172H7.24138ZM5.88745 19.1062L4.89383 18.1126L5.32062 15.5255L5.9675 14.8828H7.42968V16.5703H9.11718V18.0324L8.47445 18.6794L5.88745 19.1062ZM19.2111 7.87261L19.2093 7.8744L19.2075 7.8762L17.519 9.57579L14.4242 6.48099L16.1238 4.79244L16.1255 4.79068L16.1273 4.78892C16.4489 4.46738 16.9703 4.46341 17.2957 4.78888L19.189 6.68219C19.5363 7.02943 19.5385 7.54524 19.2111 7.87261Z"/>
</svg>
