<svg viewBox="0 0 24 24" fill="currentColor" xmlns="http://www.w3.org/2000/svg">
<path d="M21.2738 2.96136L17.2113 2.02386C16.7699 1.9223 16.3168 2.15277 16.1371 2.56683L14.2621 6.94183C14.0981 7.32464 14.2074 7.77386 14.5317 8.03558L16.8988 9.97308C15.4926 12.9692 13.0356 15.4614 9.97697 16.895L8.03947 14.5278C7.77384 14.2035 7.32853 14.0942 6.94572 14.2582L2.57072 16.1332C2.15275 16.3168 1.92228 16.77 2.02384 17.2114L2.96134 21.2739C3.059 21.6957 3.434 22.0004 3.87541 22.0004C13.8793 22.0004 22.0004 13.895 22.0004 3.87542C22.0004 3.43792 21.6996 3.05902 21.2738 2.96136Z"/>
</svg>
