<svg viewBox="0 0 24 24" fill="currentColor" xmlns="http://www.w3.org/2000/svg">
<path d="M17.625 12.3125C17.1074 12.3125 16.6875 12.732 16.6875 13.25C16.6875 13.7676 17.1074 14.1875 17.625 14.1875C18.1426 14.1875 18.5625 13.7676 18.5625 13.25C18.5625 12.732 18.1426 12.3125 17.625 12.3125ZM18.875 8.875V5.90156C18.875 5.4043 18.6773 4.92734 18.3258 4.57578L16.2992 2.54922C15.9477 2.19766 15.4707 2 14.9734 2H6.31563C5.65781 2 5.125 2.55977 5.125 3.25V8.875C3.39922 8.875 2 10.2742 2 12V17C2 17.3453 2.27969 17.625 2.625 17.625H5.125V21.375C5.125 21.7203 5.40469 22 5.75 22H18.25C18.5953 22 18.875 21.7203 18.875 21.375V17.625H21.375C21.7203 17.625 22 17.3453 22 17V12C22 10.2742 20.6008 8.875 18.875 8.875ZM7 3.875H14.5V5.75C14.5 6.09531 14.7797 6.375 15.125 6.375H17V8.875H7V3.875ZM17 20.125H7V17.625H17V20.125ZM20.125 15.75H3.875V12C3.875 11.3109 4.43594 10.75 5.125 10.75H18.875C19.5641 10.75 20.125 11.3109 20.125 12V15.75Z"/>
</svg>
