<svg viewBox="0 0 24 24" fill="currentColor" xmlns="http://www.w3.org/2000/svg">
<path d="M20.2979 4.70211L18.51 6.49002C16.9719 4.95169 14.8473 4 12.5 4C7.8161 4 3.9966 7.82243 4 12.5063C4.0034 17.1979 7.8077 21 12.5 21C14.691 21 16.6884 20.171 18.1956 18.8096C18.3709 18.6513 18.3791 18.3791 18.2121 18.2121L17.5356 17.5356C17.3815 17.3814 17.1328 17.3716 16.9701 17.5167C15.783 18.575 14.2173 19.2177 12.5 19.2177C8.7874 19.2177 5.7823 16.2132 5.7823 12.5C5.7823 8.78739 8.7868 5.78226 12.5 5.78226C14.3564 5.78226 16.0356 6.53365 17.2509 7.74912L15.3957 9.60434C15.1366 9.86346 15.3201 10.3064 15.6865 10.3064H20.5887C20.8158 10.3064 21 10.1223 21 9.89516V4.99296C21 4.62653 20.557 4.44303 20.2979 4.70211Z"/>
</svg>
