<svg viewBox="0 0 24 24" fill="currentColor" xmlns="http://www.w3.org/2000/svg">
<path d="M18.4955 6.49002L20.2834 4.70211C20.5424 4.44303 20.9855 4.62653 20.9855 4.99296V9.89516C20.9855 10.1223 20.8013 10.3064 20.5742 10.3064H15.672C15.3056 10.3064 15.1221 9.86346 15.3812 9.60434L17.2364 7.74912C16.0211 6.53365 14.3419 5.78226 12.4855 5.78226C9.28806 5.78226 6.61614 8.01051 5.93554 11H4.11844C4.83039 7.02987 8.31535 4 12.4855 4C14.8327 4 16.9574 4.95169 18.4955 6.49002Z"/>
<path d="M6.49002 17.51L4.70211 19.2979C4.44303 19.557 4 19.3735 4 19.007V14.1048C4 13.8777 4.18416 13.6936 4.41129 13.6936L9.31349 13.6935C9.67992 13.6935 9.86342 14.1365 9.60431 14.3957L7.74912 16.2509C8.96438 17.4663 10.6436 18.2177 12.5 18.2177C15.6974 18.2177 18.3693 15.9895 19.0499 13H20.867C20.1551 16.9701 16.6701 20 12.5 20C10.1527 20 8.02807 19.0483 6.49002 17.51Z"/>
</svg>
