<svg viewBox="0 0 24 24" fill="currentColor" xmlns="http://www.w3.org/2000/svg">
<path d="M16.3738 6.06235C16.0647 6.06238 15.7627 6.15405 15.5058 6.32576C15.2488 6.49746 15.0486 6.7415 14.9304 7.027C14.8121 7.31251 14.7812 7.62666 14.8415 7.92973C14.9018 8.2328 15.0507 8.51119 15.2692 8.72969C15.4877 8.94818 15.7661 9.09698 16.0692 9.15726C16.3722 9.21753 16.6864 9.18659 16.9719 9.06833C17.2574 8.95007 17.5014 8.74981 17.6731 8.49287C17.8448 8.23594 17.9364 7.93386 17.9364 7.62485C17.9361 7.21051 17.7714 6.81324 17.4784 6.52027C17.1854 6.22731 16.7881 6.06261 16.3738 6.06235ZM21.7294 2.75554C21.6818 2.5365 21.4658 2.32043 21.2473 2.27344C19.9727 2 18.9753 2 17.9828 2C13.9297 2 11.4906 4.15202 9.66547 6.99985H5.70391C5.06541 7.00046 4.3159 7.46371 4.02896 8.03432L2.09888 11.8941C2.03872 12.0256 2.00512 12.1677 2 12.3122C2.00008 12.5608 2.0989 12.7992 2.27471 12.975C2.45053 13.1508 2.68895 13.2496 2.93757 13.2496H6.55604L6.14222 14.0864C5.77754 14.8251 6.3093 15.4447 6.3827 15.517L8.48246 17.6154C9.09044 18.2226 9.80341 17.9095 9.91449 17.8552L10.7483 17.442V21.0625C10.7484 21.3111 10.8472 21.5496 11.023 21.7254C11.1988 21.9012 11.4373 22 11.6859 22C11.8305 21.9947 11.9727 21.9613 12.1046 21.9017L15.9599 19.9719C16.5312 19.6868 16.9952 18.9367 16.9952 18.2977V14.3318C19.836 12.5051 21.9993 10.0564 21.9993 6.02328C22.0029 5.02605 22.0029 4.03117 21.7294 2.75554ZM16.0051 12.7418C14.5621 13.4639 11.2744 15.091 9.48961 15.9735L8.02469 14.5088C8.90734 12.7241 10.5347 9.4308 11.2561 7.98976C13.1069 5.10661 15.1237 3.87492 17.9828 3.87492C18.686 3.87492 19.3221 3.87492 20.0362 3.96648C20.1289 4.69768 20.1265 5.34457 20.1241 6.02267C20.1241 8.86562 18.8911 10.8791 16.0051 12.7418Z"/>
</svg>
