<svg viewBox="0 0 24 24" fill="currentColor" xmlns="http://www.w3.org/2000/svg">
<path d="M18.5625 15.125H14.8125C13.9492 15.125 13.25 14.4258 13.25 13.5625C13.25 12.6992 13.9492 12 14.8125 12H18.25C18.25 12 22 7.82031 22 5.75C22 3.67969 20.3203 2 18.25 2C16.1797 2 14.5 3.67969 14.5 5.75C14.5 6.91406 15.6836 8.74609 16.7227 10.125H14.8125C12.918 10.125 11.375 11.668 11.375 13.5625C11.375 15.457 12.918 17 14.8125 17H18.5625C19.4258 17 20.125 17.6992 20.125 18.5625C20.125 19.4258 19.4258 20.125 18.5625 20.125H7.27734C8.31641 18.7461 9.5 16.9141 9.5 15.75C9.5 13.6797 7.82031 12 5.75 12C3.67969 12 2 13.6797 2 15.75C2 17.8203 5.75 22 5.75 22H18.5625C20.457 22 22 20.457 22 18.5625C22 16.668 20.457 15.125 18.5625 15.125ZM16.375 5.75C16.375 4.71484 17.2148 3.875 18.25 3.875C19.2852 3.875 20.125 4.71484 20.125 5.74609C20.1055 6.26953 19.3125 7.62891 18.25 9.04297C17.1875 7.62891 16.3945 6.27344 16.375 5.75ZM5.75 19.043C4.6875 17.6289 3.89453 16.2734 3.875 15.75C3.875 14.7148 4.71484 13.875 5.75 13.875C6.78516 13.875 7.625 14.7148 7.625 15.7461C7.60547 16.2695 6.8125 17.6289 5.75 19.043ZM5.75 15.125C5.40625 15.125 5.125 15.4062 5.125 15.75C5.125 16.0938 5.40625 16.375 5.75 16.375C6.09375 16.375 6.375 16.0938 6.375 15.75C6.375 15.4062 6.09375 15.125 5.75 15.125ZM18.875 5.75C18.875 5.40625 18.5938 5.125 18.25 5.125C17.9062 5.125 17.625 5.40625 17.625 5.75C17.625 6.09375 17.9062 6.375 18.25 6.375C18.5938 6.375 18.875 6.09375 18.875 5.75Z"/>
</svg>
