<svg viewBox="0 0 24 24" fill="currentColor" xmlns="http://www.w3.org/2000/svg">
<path d="M12 12C10.4286 12 9.14286 13.2857 9.14286 14.8571C9.14286 16.4286 10.4286 17.7143 12 17.7143C13.5714 17.7143 14.8571 16.4286 14.8571 14.8571C14.8571 13.2857 13.5714 12 12 12ZM21.3348 6.33482L17.5893 2.58929C17.2277 2.22589 16.6786 2 16.1116 2H4.85714C3.27902 2 2 3.27902 2 4.85714V19.1429C2 20.721 3.27902 22 4.85714 22H19.1429C20.721 22 22 20.721 22 19.1429V7.88839C22 7.32143 21.7723 6.77232 21.3348 6.33482ZM7.71429 4.14286H14.1429V7.71429H7.71429V4.14286ZM19.8571 19.1429C19.8571 19.5373 19.5373 19.8571 19.1429 19.8571H4.85714C4.46268 19.8571 4.14286 19.5373 4.14286 19.1429V4.85714C4.14286 4.46259 4.46268 4.14286 4.85714 4.14286H5.57143V8.78571C5.57143 9.37723 6.05134 9.85714 6.64286 9.85714H15.2143C15.808 9.85714 16.2857 9.37946 16.2857 8.78571V4.31607L19.779 7.80938C19.8304 7.85714 19.8571 7.92857 19.8571 7.99554V19.1429Z"/>
</svg>
