<svg viewBox="0 0 24 24" fill="currentColor" xmlns="http://www.w3.org/2000/svg">
<path d="M21.3724 6.37237L17.6276 2.62763C17.2258 2.22577 16.6807 2 16.1124 2H4.14286C2.95938 2 2 2.95938 2 4.14286V19.8571C2 21.0406 2.95938 22 4.14286 22H19.8571C21.0406 22 22 21.0406 22 19.8571V7.88759C22 7.31927 21.7742 6.77423 21.3724 6.37237ZM12 19.1429C10.4221 19.1429 9.14286 17.8637 9.14286 16.2857C9.14286 14.7078 10.4221 13.4286 12 13.4286C13.5779 13.4286 14.8571 14.7078 14.8571 16.2857C14.8571 17.8637 13.5779 19.1429 12 19.1429ZM16.2857 5.54821V10.0357C16.2857 10.3316 16.0458 10.5714 15.75 10.5714H5.39286C5.09701 10.5714 4.85714 10.3316 4.85714 10.0357V5.39286C4.85714 5.09701 5.09701 4.85714 5.39286 4.85714H15.5946C15.7367 4.85714 15.873 4.91357 15.9734 5.01406L16.1288 5.16942C16.1785 5.21916 16.218 5.27821 16.2449 5.34321C16.2719 5.4082 16.2857 5.47786 16.2857 5.54821Z"/>
</svg>
