<svg viewBox="0 0 24 24" fill="currentColor" xmlns="http://www.w3.org/2000/svg">
<path d="M21.1664 5.25001H7.00971L6.70673 3.68176C6.6302 3.28576 6.28742 3 5.88888 3H2.41667C2.18656 3 2 3.1889 2 3.42188V4.26562C2 4.49861 2.18656 4.6875 2.41667 4.6875H5.20277L7.61923 17.1926C7.23596 17.5969 6.99999 18.1454 6.99999 18.75C6.99999 19.9927 7.99492 21 9.22221 21C10.4495 21 11.4444 19.9927 11.4444 18.75C11.4449 18.3549 11.342 17.9668 11.1464 17.625H16.1869C15.9913 17.9668 15.8885 18.3549 15.8889 18.75C15.8889 19.9927 16.8839 21 18.1111 21C19.3384 21 20.3334 19.9927 20.3334 18.75C20.3334 18.1124 20.071 17.5373 19.6502 17.1278L19.6861 16.9605C19.7991 16.4346 19.4034 15.9375 18.8718 15.9375H9.07499L8.74895 14.25H19.5964C19.9884 14.25 20.3274 13.9734 20.4107 13.5855L21.9807 6.27297C22.0936 5.74707 21.6979 5.25001 21.1664 5.25001ZM9.22221 19.5937C8.7627 19.5937 8.38888 19.2153 8.38888 18.75C8.38888 18.2848 8.7627 17.9062 9.22221 17.9062C9.68172 17.9062 10.0555 18.2848 10.0555 18.75C10.0555 19.2153 9.68172 19.5937 9.22221 19.5937ZM18.1111 19.5937C17.6516 19.5937 17.2778 19.2153 17.2778 18.75C17.2778 18.2848 17.6516 17.9062 18.1111 17.9062C18.5706 17.9062 18.9444 18.2848 18.9444 18.75C18.9444 19.2153 18.5706 19.5937 18.1111 19.5937ZM18.9249 12.5625H8.42291L7.33575 6.9375H20.1326L18.9249 12.5625Z"/>
</svg>
