<svg viewBox="0 0 24 24" fill="currentColor" xmlns="http://www.w3.org/2000/svg">
<path d="M11.9683 8.63105C12.5063 8.63105 12.9117 9.07054 12.9117 9.54035V11.9652C12.9117 12.5032 12.5063 12.8745 11.9683 12.8745C11.4985 12.8745 11.059 12.5032 11.059 11.9652V9.54035C11.059 9.07054 11.4985 8.63105 11.9683 8.63105ZM13.2148 15.0303C13.2148 15.7009 12.673 16.2427 11.9683 16.2427C11.3318 16.2427 10.7559 15.7009 10.7559 15.0303C10.7559 14.3597 11.3318 13.7838 11.9683 13.7838C12.673 13.7838 13.2148 14.3597 13.2148 15.0303ZM15.4161 8.16503L21.2243 9.02508C21.5653 9.07433 21.8456 9.31303 21.9555 9.63886C22.0616 9.96848 21.9744 10.3284 21.732 10.5671L17.5188 14.7423L18.5153 20.6339C18.5721 20.9749 18.4319 21.3234 18.1478 21.5243C17.8674 21.7251 17.462 21.7516 17.1892 21.5887L11.9986 18.8153L6.77766 21.5887C6.50487 21.7516 6.13357 21.7251 5.84941 21.5243C5.56904 21.3234 5.42886 20.9749 5.45159 20.6339L6.47835 14.7423L2.2694 10.5671C2.02464 10.3284 1.93788 9.96848 2.04548 9.63886C2.1527 9.31303 2.43572 9.07433 2.77634 9.02508L8.58112 8.16503L11.1802 2.81224C11.3356 2.49887 11.65 2.3 11.9986 2.3C12.3472 2.3 12.6654 2.49891 12.817 2.81224L15.4161 8.16503ZM9.32372 9.8965L4.84084 10.5557L8.09616 13.78C8.30454 13.9884 8.39926 14.2877 8.35 14.5794L7.58467 19.1108L11.5705 16.9815C11.8395 16.8375 12.1615 16.8375 12.4267 16.9815L16.4125 19.1108L15.6472 14.5794C15.5979 14.2877 15.6964 13.9884 15.9048 13.78L19.1594 10.5557L14.6773 9.8965C14.3779 9.85103 14.1203 9.66159 13.9915 9.39259L11.9986 5.29124L10.0095 9.39259C9.87688 9.66159 9.61924 9.85103 9.32372 9.8965Z"/>
</svg>
