<svg viewBox="0 0 24 24" fill="currentColor" xmlns="http://www.w3.org/2000/svg">
<path d="M20.9757 8.80738L15.514 7.99303L13.0729 2.93103C12.6355 2.02874 11.3682 2.01726 10.9271 2.93103L8.48599 7.99303L3.02432 8.80738C2.04488 8.95266 1.65236 10.1876 2.36263 10.8949L6.31403 14.8328L5.37946 20.3957C5.21123 21.4012 6.24674 22.1544 7.11403 21.6842L12 19.0575L16.886 21.6842C17.7533 22.1506 18.7888 21.4012 18.6206 20.3957L17.686 14.8328L21.6374 10.8949C22.3476 10.1876 21.9551 8.95266 20.9757 8.80738ZM15.7608 14.1905L16.6468 19.4819L12 16.9853L7.35328 19.4819L8.23927 14.1905L4.47852 10.4437L9.67477 9.67144L12 4.85412L14.3252 9.67144L19.5215 10.4437L15.7608 14.1905Z"/>
</svg>
