<svg viewBox="0 0 24 24" fill="currentColor" xmlns="http://www.w3.org/2000/svg">
<path d="M12 22C17.5229 22 22 17.5229 22 12C22 6.47714 17.5229 2 12 2C6.47714 2 2 6.47714 2 12C2 17.5229 6.47714 22 12 22ZM7.83073 18.9064L9.98439 16.7528C11.2669 17.2973 12.7315 17.2981 14.0156 16.7528L16.1693 18.9064C13.6202 20.4516 10.3798 20.4516 7.83073 18.9064ZM15.2258 12C15.2258 13.7787 13.7787 15.2258 12 15.2258C10.2213 15.2258 8.77419 13.7787 8.77419 12C8.77419 10.2213 10.2213 8.77419 12 8.77419C13.7787 8.77419 15.2258 10.2213 15.2258 12ZM18.9064 16.1693L16.7528 14.0156C17.2973 12.7331 17.2981 11.2685 16.7528 9.98439L18.9064 7.83073C20.4516 10.3798 20.4516 13.6202 18.9064 16.1693ZM16.1692 5.09355L14.0156 7.24722C12.7331 6.70266 11.2685 6.70198 9.98439 7.24722L7.83073 5.09355C10.3798 3.54843 13.6202 3.54843 16.1692 5.09355ZM5.09355 7.83073L7.24722 9.98439C6.70262 11.2669 6.70198 12.7315 7.24722 14.0156L5.09355 16.1693C3.54843 13.6202 3.54843 10.3798 5.09355 7.83073Z"/>
</svg>
