<svg viewBox="0 0 24 24" fill="currentColor" xmlns="http://www.w3.org/2000/svg">
<path fill-rule="evenodd" clip-rule="evenodd" d="M3.80452 3.3H19.4436C20.4403 3.3 21.2482 4.10488 21.2482 5.09778V12.9017C20.9047 12.496 20.4988 12.1446 20.0452 11.8619V10.4912H15.2331V11.5409C14.7959 11.738 14.3914 11.9946 14.0301 12.3003V10.4912H9.21806V14.0867H12.6778C12.5065 14.4639 12.3799 14.8657 12.3049 15.2853H9.21806V18.8808H13.0001C13.2836 19.3328 13.6364 19.7372 14.0436 20.0793H3.80452C2.8079 20.0793 2 19.2745 2 18.2816V5.09778C2 4.10488 2.8079 3.3 3.80452 3.3ZM3.80452 18.8808H8.01505V15.2853H3.20301V18.2816C3.20301 18.6126 3.4723 18.8808 3.80452 18.8808ZM3.20301 14.0867H8.01505V10.4912H3.20301V14.0867ZM3.20301 9.29262H8.01505V5.69704H3.20301V9.29262ZM9.21806 9.29262H14.0301V5.69704H9.21806V9.29262ZM15.2331 9.29262H20.0452V5.69704H15.2331V9.29262Z"/>
<path d="M19.7444 16.0718V16.2965C19.7444 16.4201 19.6429 16.5212 19.5189 16.5212H17.6768V18.3564C17.6768 18.4801 17.5752 18.5812 17.4512 18.5812H17.2256C17.1016 18.5812 17 18.4801 17 18.3564V16.5212H15.1579C15.0339 16.5212 14.9324 16.4201 14.9324 16.2965V16.0718C14.9324 15.9482 15.0339 15.8471 15.1579 15.8471H17V14.0118C17 13.8882 17.1016 13.7871 17.2256 13.7871H17.4512C17.5752 13.7871 17.6768 13.8882 17.6768 14.0118V15.8471H19.5189C19.6429 15.8471 19.7444 15.9482 19.7444 16.0718ZM22 16.1841C22 18.7497 19.9136 20.8285 17.3384 20.8285C14.7632 20.8285 12.6768 18.7497 12.6768 16.1841C12.6768 13.6186 14.7632 11.5399 17.3384 11.5399C19.9136 11.5399 22 13.6186 22 16.1841ZM21.3986 16.1841C21.3986 13.9388 19.5696 12.1392 17.3384 12.1392C15.0847 12.1392 13.2782 13.9613 13.2782 16.1841C13.2782 18.4295 15.1072 20.2291 17.3384 20.2291C19.5921 20.2291 21.3986 18.407 21.3986 16.1841Z"/>
</svg>
