<svg viewBox="0 0 24 24" fill="currentColor" xmlns="http://www.w3.org/2000/svg">
<path d="M21.4508 10.8258L13.1742 2.54918C12.8226 2.19755 12.3456 2 11.8484 2H3.875C2.83945 2 2 2.83945 2 3.875V11.8484C2 12.0946 2.04849 12.3384 2.14272 12.5659C2.23695 12.7934 2.37507 13.0001 2.54918 13.1742L10.8258 21.4508C11.5581 22.183 12.7452 22.1831 13.4775 21.4508L21.4508 13.4775C22.183 12.7452 22.183 11.5581 21.4508 10.8258ZM12.1518 20.1248L3.875 11.8484V3.875H11.8484L20.125 12.1516L12.1518 20.1248ZM9.5 7.625C9.5 8.66055 8.66055 9.5 7.625 9.5C6.58945 9.5 5.75 8.66055 5.75 7.625C5.75 6.58945 6.58945 5.75 7.625 5.75C8.66055 5.75 9.5 6.58945 9.5 7.625Z"/>
</svg>
