<svg viewBox="0 0 24 24" fill="currentColor" xmlns="http://www.w3.org/2000/svg">
<path d="M13.8488 12.1253L19.0571 6.91697L20.1312 5.84291C20.2896 5.68447 20.2896 5.427 20.1312 5.26856L18.982 4.11934C18.8235 3.9609 18.566 3.9609 18.4076 4.11934L12.1253 10.4017L5.84291 4.11883C5.68447 3.96039 5.427 3.96039 5.26856 4.11883L4.11883 5.26805C3.96039 5.42649 3.96039 5.68396 4.11883 5.8424L10.4017 12.1253L4.11883 18.4076C3.96039 18.566 3.96039 18.8235 4.11883 18.982L5.26805 20.1312C5.42649 20.2896 5.68396 20.2896 5.8424 20.1312L12.1253 13.8488L17.3335 19.0571L18.4076 20.1312C18.566 20.2896 18.8235 20.2896 18.982 20.1312L20.1312 18.982C20.2896 18.8235 20.2896 18.566 20.1312 18.4076L13.8488 12.1253Z"/>
</svg>
