<svg viewBox="0 0 24 24" fill="currentColor" xmlns="http://www.w3.org/2000/svg">
<path d="M21.5743 17.4555L17.0005 12.8818C16.0982 11.9795 14.7507 11.8037 13.6649 12.3388L9.50122 8.17518V5.74963L4.50171 2L2.00195 4.49976L5.75159 9.49927H8.17713L12.3408 13.6629C11.8096 14.7488 11.9814 16.0963 12.8837 16.9985L17.4575 21.5723C18.0277 22.1426 18.9495 22.1426 19.5159 21.5723L21.5743 19.5139C22.1406 18.9437 22.1406 18.0219 21.5743 17.4555ZM14.9577 10.7882C16.0631 10.7882 17.102 11.2178 17.8832 11.999L18.641 12.7568C19.2581 12.4873 19.844 12.1123 20.3517 11.6045C21.8008 10.1555 22.2929 8.11659 21.832 6.26521C21.7461 5.91368 21.3048 5.7926 21.047 6.05039L18.141 8.95635L15.4889 8.51499L15.0476 5.8629L17.9535 2.95694C18.2113 2.69915 18.0863 2.25779 17.7309 2.16795C15.8795 1.71097 13.8406 2.20311 12.3955 3.64828C11.2823 4.76145 10.7589 6.23006 10.7863 7.69476L13.993 10.9015C14.3093 10.8273 14.6374 10.7882 14.9577 10.7882ZM10.8995 13.991L8.68489 11.7764L2.73235 17.7328C1.75588 18.7093 1.75588 20.2912 2.73235 21.2676C3.70882 22.2441 5.29069 22.2441 6.26716 21.2676L11.0948 16.44C10.798 15.6627 10.7081 14.8152 10.8995 13.991ZM4.50171 20.4357C3.98613 20.4357 3.5643 20.0139 3.5643 19.4983C3.5643 18.9788 3.98223 18.5609 4.50171 18.5609C5.02119 18.5609 5.43912 18.9788 5.43912 19.4983C5.43912 20.0139 5.02119 20.4357 4.50171 20.4357Z"/>
</svg>
