<svg viewBox="0 0 24 24" fill="currentColor" xmlns="http://www.w3.org/2000/svg">
<path fill-rule="evenodd" clip-rule="evenodd" d="M16.2903 5.8125H19.1875C19.3367 5.8125 19.4798 5.87176 19.5852 5.97725C19.6907 6.08274 19.75 6.22582 19.75 6.375V6.9375C19.75 7.08668 19.6907 7.22976 19.5852 7.33525C19.4798 7.44074 19.3367 7.5 19.1875 7.5H18.625V19.3125C18.625 19.7601 18.4472 20.1893 18.1307 20.5057C17.8143 20.8222 17.3851 21 16.9375 21H6.8125C6.36495 21 5.93572 20.8222 5.61926 20.5057C5.30279 20.1893 5.125 19.7601 5.125 19.3125V7.5H4.5625C4.41332 7.5 4.27024 7.44074 4.16475 7.33525C4.05926 7.22976 4 7.08668 4 6.9375V6.375C4 6.22582 4.05926 6.08274 4.16475 5.97725C4.27024 5.87176 4.41332 5.8125 4.5625 5.8125H7.45973L8.65574 3.81914C8.80569 3.56929 9.01778 3.36252 9.27136 3.21897C9.52495 3.07542 9.81138 2.99998 10.1028 3H13.6472C13.9387 2.99986 14.2253 3.07524 14.479 3.2188C14.7328 3.36235 14.945 3.56919 15.095 3.81914L16.2903 5.8125ZM10.1185 4.7147C10.0867 4.73264 10.0601 4.75851 10.0413 4.7898L9.42777 5.8125H14.3222L13.7084 4.7898C13.6896 4.75856 13.6631 4.73272 13.6314 4.71479C13.5996 4.69686 13.5638 4.68746 13.5273 4.6875H10.2227C10.1862 4.6874 10.1502 4.69677 10.1185 4.7147ZM9.48438 17.625H10.3281C10.44 17.625 10.5473 17.5806 10.6264 17.5014C10.7056 17.4223 10.75 17.315 10.75 17.2031V9.60938C10.75 9.49749 10.7056 9.39018 10.6264 9.31106C10.5473 9.23195 10.44 9.1875 10.3281 9.1875H9.48438C9.37249 9.1875 9.26518 9.23195 9.18606 9.31106C9.10695 9.39018 9.0625 9.49749 9.0625 9.60938V17.2031C9.0625 17.315 9.10695 17.4223 9.18606 17.5014C9.26518 17.5806 9.37249 17.625 9.48438 17.625ZM13.4219 17.625H14.2656C14.3775 17.625 14.4848 17.5806 14.5639 17.5014C14.6431 17.4223 14.6875 17.315 14.6875 17.2031V9.60938C14.6875 9.49749 14.6431 9.39018 14.5639 9.31106C14.4848 9.23195 14.3775 9.1875 14.2656 9.1875H13.4219C13.31 9.1875 13.2027 9.23195 13.1236 9.31106C13.0444 9.39018 13 9.49749 13 9.60938V17.2031C13 17.315 13.0444 17.4223 13.1236 17.5014C13.2027 17.5806 13.31 17.625 13.4219 17.625Z"/>
</svg>
