<svg viewBox="0 0 24 24" fill="currentColor" xmlns="http://www.w3.org/2000/svg">
<path d="M21.5 15.5H21V11.8719C21 11.2781 20.7594 10.7 20.3406 10.2812L17.7188 7.65937C17.3 7.24062 16.7188 7 16.1281 7H15V5.75C15 4.78438 14.2156 4 13.25 4H3.75C2.78438 4 2 4.78438 2 5.75V15.25C2 16.2156 2.78438 17 3.75 17H4C4 18.6562 5.34376 20 7 20C8.65625 20 10 18.6562 10 17H14C14 18.6562 15.3438 20 17 20C18.6562 20 20 18.6562 20 17H21.5C21.775 17 22 16.775 22 16.5V16C22 15.725 21.775 15.5 21.5 15.5ZM7 18.5C6.17188 18.5 5.5 17.8281 5.5 17C5.5 16.1719 6.17188 15.5 7 15.5C7.82812 15.5 8.5 16.1719 8.5 17C8.5 17.8281 7.82812 18.5 7 18.5ZM15 8.5H16.1281C16.325 8.5 16.5188 8.58125 16.6594 8.71875L18.9406 11H15V8.5ZM17 18.5C16.1719 18.5 15.5 17.8281 15.5 17C15.5 16.1719 16.1719 15.5 17 15.5C17.8281 15.5 18.5 16.1719 18.5 17C18.5 17.8281 17.8281 18.5 17 18.5Z"/>
</svg>
