<svg viewBox="0 0 24 24" fill="currentColor" xmlns="http://www.w3.org/2000/svg">
<path d="M21.5 15.5H21V11.8719C21 11.2781 20.7594 10.7 20.3406 10.2812L17.7188 7.65937C17.3 7.24062 16.7188 7 16.1281 7H15V5.75C15 4.78438 14.2156 4 13.25 4H3.75C2.78438 4 2 4.78438 2 5.75V15.25C2 16.2156 2.78438 17 3.75 17H4C4 18.6562 5.34375 20 7 20C8.65625 20 10 18.6562 10 17H14C14 18.6562 15.3438 20 17 20C18.6562 20 20 18.6562 20 17H21.5C21.775 17 22 16.775 22 16.5V16C22 15.725 21.775 15.5 21.5 15.5ZM7 18.5C6.17188 18.5 5.5 17.8281 5.5 17C5.5 16.1719 6.17188 15.5 7 15.5C7.82812 15.5 8.5 16.1719 8.5 17C8.5 17.8281 7.82812 18.5 7 18.5ZM13.5 15.5H9.58437C9.06562 14.6062 8.10938 14 7 14C5.89062 14 4.93438 14.6062 4.41563 15.5H3.75C3.6125 15.5 3.5 15.3875 3.5 15.25V5.75C3.5 5.6125 3.6125 5.5 3.75 5.5H13.25C13.3875 5.5 13.5 5.6125 13.5 5.75V15.5ZM15 8.5H16.1281C16.325 8.5 16.5188 8.58125 16.6594 8.71875L18.9406 11H15V8.5ZM17 18.5C16.1719 18.5 15.5 17.8281 15.5 17C15.5 16.1719 16.1719 15.5 17 15.5C17.8281 15.5 18.5 16.1719 18.5 17C18.5 17.8281 17.8281 18.5 17 18.5ZM19.5 15.3469C18.9625 14.5375 18.0438 14 17 14C16.2281 14 15.5312 14.3 15 14.7781V12.5H19.5V15.3469Z"/>
</svg>
