<svg viewBox="0 0 24 24" fill="currentColor" xmlns="http://www.w3.org/2000/svg">
<path fill-rule="evenodd" clip-rule="evenodd" d="M17.9958 20.5385C19.8907 20.5385 21.4268 19.0093 21.4268 17.1231C21.4268 15.2368 19.8907 13.7077 17.9958 13.7077C16.1009 13.7077 14.5648 15.2368 14.5648 17.1231C14.5648 19.0093 16.1009 20.5385 17.9958 20.5385ZM17.9958 21.3923C20.3644 21.3923 22.2845 19.4809 22.2845 17.1231C22.2845 14.7652 20.3644 12.8539 17.9958 12.8539C15.6272 12.8539 13.7071 14.7652 13.7071 17.1231C13.7071 19.4809 15.6272 21.3923 17.9958 21.3923Z"/>
<path fill-rule="evenodd" clip-rule="evenodd" d="M7.70288 17.1231C8.17656 17.1231 8.56062 16.7408 8.56062 16.2692C8.56062 15.7977 8.17656 15.4154 7.70288 15.4154C7.22914 15.4154 6.84514 15.7977 6.84514 16.2692C6.84514 16.7408 7.22914 17.1231 7.70288 17.1231ZM7.70288 17.9769C8.65029 17.9769 9.41836 17.2124 9.41836 16.2692C9.41836 15.3261 8.65029 14.5616 7.70288 14.5616C6.75541 14.5616 5.9874 15.3261 5.9874 16.2692C5.9874 17.2124 6.75541 17.9769 7.70288 17.9769Z"/>
<path fill-rule="evenodd" clip-rule="evenodd" d="M7.70293 18.8308C9.12408 18.8308 10.2762 17.6839 10.2762 16.2692C10.2762 14.8546 9.12408 13.7077 7.70293 13.7077C6.28178 13.7077 5.12968 14.8546 5.12968 16.2692C5.12968 17.6839 6.28178 18.8308 7.70293 18.8308ZM7.70293 19.6846C9.59776 19.6846 11.1339 18.1555 11.1339 16.2692C11.1339 14.383 9.59776 12.8539 7.70293 12.8539C5.80804 12.8539 4.27194 14.383 4.27194 16.2692C4.27194 18.1555 5.80804 19.6846 7.70293 19.6846Z"/>
<path fill-rule="evenodd" clip-rule="evenodd" d="M17.9958 22.2462C20.8381 22.2462 23.1423 19.9525 23.1423 17.1231C23.1423 14.2937 20.8381 12 17.9958 12C15.1535 12 12.8494 14.2937 12.8494 17.1231C12.8494 19.9525 15.1535 22.2462 17.9958 22.2462ZM17.9958 23.1C21.3118 23.1 24 20.4241 24 17.1231C24 13.8221 21.3118 11.1461 17.9958 11.1461C14.6798 11.1461 11.9916 13.8221 11.9916 17.1231C11.9916 20.4241 14.6798 23.1 17.9958 23.1Z"/>
<path fill-rule="evenodd" clip-rule="evenodd" d="M9.72167 1.02504C9.88911 0.85832 10.1607 0.85832 10.3282 1.02504L22.2125 12.8554C22.38 13.0221 22.38 13.2925 22.2125 13.4592C22.0451 13.6259 21.7735 13.6259 21.606 13.4592L9.72167 1.6288C9.55416 1.46208 9.55416 1.19177 9.72167 1.02504Z"/>
<path fill-rule="evenodd" clip-rule="evenodd" d="M0.125614 4.49379C0.293098 4.32707 0.564642 4.32707 0.732129 4.49379L9.98968 13.7093C10.1571 13.876 10.1571 14.1463 9.98968 14.313C9.82218 14.4797 9.55061 14.4797 9.38317 14.313L0.125614 5.09755C-0.0418712 4.93083 -0.0418712 4.66052 0.125614 4.49379Z"/>
<path fill-rule="evenodd" clip-rule="evenodd" d="M0.125614 12.9255C0.293098 12.7588 0.564642 12.7588 0.732129 12.9255L6.07623 18.2453C6.24368 18.412 6.24368 18.6823 6.07623 18.8491C5.90873 19.0158 5.63718 19.0158 5.46969 18.8491L0.125614 13.5293C-0.0418712 13.3626 -0.0418712 13.0922 0.125614 12.9255Z"/>
<path fill-rule="evenodd" clip-rule="evenodd" d="M10.3113 17.3015C10.4787 17.1348 10.7503 17.1348 10.9178 17.3015L14.1175 20.4867C14.285 20.6534 14.285 20.9237 14.1175 21.0904C13.95 21.2572 13.6785 21.2572 13.511 21.0904L10.3113 17.9053C10.1438 17.7385 10.1438 17.4682 10.3113 17.3015Z"/>
</svg>
