<svg viewBox="0 0 24 24" fill="currentColor" xmlns="http://www.w3.org/2000/svg">
<path d="M4.70211 4.70211L6.49002 6.49002C8.02807 4.95169 10.1527 4 12.5 4C17.1839 4 21.0034 7.82243 21 12.5063C20.9966 17.1979 17.1923 21 12.5 21C10.309 21 8.31163 20.171 6.80438 18.8096C6.62914 18.6513 6.62091 18.3791 6.78786 18.2121L7.46437 17.5356C7.61853 17.3814 7.86719 17.3716 8.02993 17.5167C9.21698 18.575 10.7827 19.2177 12.5 19.2177C16.2126 19.2177 19.2177 16.2132 19.2177 12.5C19.2177 8.78739 16.2132 5.78226 12.5 5.78226C10.6436 5.78226 8.96438 6.53365 7.74912 7.74912L9.60431 9.60434C9.86342 9.86346 9.67992 10.3064 9.31349 10.3064H4.41129C4.18416 10.3064 4 10.1223 4 9.89516V4.99296C4 4.62653 4.44303 4.44303 4.70211 4.70211Z"/>
</svg>
