<svg viewBox="0 0 24 24" fill="currentColor" xmlns="http://www.w3.org/2000/svg">
<path d="M6.4375 8.875H17.0625C17.1454 8.875 17.2249 8.84208 17.2835 8.78347C17.3421 8.72487 17.375 8.64538 17.375 8.5625V7.3125C17.375 7.22962 17.3421 7.15013 17.2835 7.09153C17.2249 7.03292 17.1454 7 17.0625 7H16.75C16.7503 6.13981 16.497 5.29862 16.0217 4.58162C15.5465 3.86461 14.8705 3.30361 14.0781 2.96875L13 5.125V2.625C13 2.45924 12.9342 2.30027 12.8169 2.18306C12.6997 2.06585 12.5408 2 12.375 2H11.125C10.9592 2 10.8003 2.06585 10.6831 2.18306C10.5658 2.30027 10.5 2.45924 10.5 2.625V5.125L9.42188 2.96875C8.62954 3.30361 7.95349 3.86461 7.47827 4.58162C7.00305 5.29862 6.74973 6.13981 6.75 7H6.4375C6.35462 7 6.27513 7.03292 6.21653 7.09153C6.15792 7.15013 6.125 7.22962 6.125 7.3125V8.5625C6.125 8.64538 6.15792 8.72487 6.21653 8.78347C6.27513 8.84208 6.35462 8.875 6.4375 8.875ZM15.25 15.75H14.5977C13.7048 16.1618 12.7332 16.375 11.75 16.375C10.7668 16.375 9.79522 16.1618 8.90234 15.75H8.25C7.56056 15.75 6.87787 15.8858 6.24091 16.1496C5.60395 16.4135 5.0252 16.8002 4.53769 17.2877C3.55312 18.2723 3 19.6076 3 21C3 21.2652 3.10536 21.5196 3.29289 21.7071C3.48043 21.8946 3.73478 22 4 22H19.5C19.7652 22 20.0196 21.8946 20.2071 21.7071C20.3946 21.5196 20.5 21.2652 20.5 21C20.5 19.6076 19.9469 18.2723 18.9623 17.2877C17.9777 16.3031 16.6424 15.75 15.25 15.75ZM11.75 14.5C14.2977 14.5 16.3766 12.5883 16.6871 10.125H6.81289C7.12344 12.5883 9.20234 14.5 11.75 14.5Z"/>
</svg>
