<svg viewBox="0 0 24 24" fill="currentColor" xmlns="http://www.w3.org/2000/svg">
<path d="M15.2844 19.0813C15.2124 19.0422 15.1415 19.0013 15.0716 18.9584L14.8273 19.0988C14.6397 19.2083 14.4263 19.2661 14.2101 19.2661C13.8754 19.2661 13.5498 19.1257 13.3048 18.8677C12.7295 18.2398 12.2957 17.488 12.0479 16.6833C11.8807 16.1189 12.1211 15.5311 12.6051 15.2695L12.8557 15.1236C12.8536 15.0417 12.8536 14.9598 12.8557 14.878L12.6164 14.7386C12.2321 14.5213 12.0102 14.1243 12.0027 13.6955C11.55 13.5719 11.075 13.5 10.5844 13.5H7.41563C4.42531 13.5 2 15.9281 2 18.9187C2 19.5156 2.485 20 3.08312 20H14.9156C15.0946 20 15.2562 19.946 15.405 19.8691C15.334 19.7134 15.2844 19.5473 15.2844 19.3673V19.0813ZM9 12C11.2094 12 13 10.2091 13 8C13 5.79094 11.2094 4 9 4C6.79063 4 5 5.79094 5 8C5 10.2091 6.79063 12 9 12ZM21.0781 15.6656C21.1602 15.2281 21.1602 14.775 21.0781 14.3375L21.8828 13.8687C21.9766 13.818 22.0195 13.7086 21.9883 13.6031C21.7773 12.9312 21.418 12.3178 20.9492 11.81C20.8789 11.7319 20.7617 11.7123 20.668 11.767L19.8633 12.232C19.5233 11.943 19.1327 11.7164 18.7108 11.568V10.6344C18.7108 10.5289 18.6327 10.4352 18.5311 10.4156C17.8358 10.2594 17.1248 10.2633 16.4608 10.4156C16.3592 10.4352 16.285 10.5289 16.285 10.6344V11.5681C15.8631 11.7166 15.4725 11.9431 15.1325 12.2322L14.325 11.7656C14.2352 11.7109 14.118 11.7305 14.0437 11.8086C13.575 12.3164 13.2156 12.9298 13.0084 13.6017C12.9772 13.7072 13.0202 13.8166 13.11 13.8673L13.9147 14.3361C13.8366 14.7736 13.8366 15.2267 13.9147 15.6642L13.11 16.133C13.0162 16.1838 12.9772 16.2931 13.0084 16.3986C13.2155 17.0705 13.575 17.6798 14.0437 18.1917C14.118 18.2698 14.2312 18.2894 14.325 18.2347L15.1337 17.7697C15.4737 18.0588 15.8644 18.2853 16.2863 18.4338V19.3675C16.2863 19.473 16.3605 19.5667 16.462 19.5863C17.1614 19.7425 17.8683 19.7386 18.5323 19.5863C18.6339 19.5667 18.712 19.473 18.712 19.3675V18.4338C19.1339 18.2853 19.5245 18.0588 19.8645 17.7697L20.6692 18.2347C20.7591 18.2894 20.8802 18.2698 20.9505 18.1917C21.4192 17.6839 21.7786 17.0705 21.9895 16.3986C22.0208 16.2931 21.9778 16.1838 21.8841 16.133L21.0781 15.6656ZM17.5 16.5156C16.6641 16.5156 15.9844 15.8359 15.9844 15C15.9844 14.1641 16.6641 13.4844 17.5 13.4844C18.3359 13.4844 19.0156 14.1641 19.0156 15C19.0156 15.8359 18.3375 16.5156 17.5 16.5156Z"/>
</svg>
