<svg viewBox="0 0 24 24" fill="currentColor" xmlns="http://www.w3.org/2000/svg">
<path d="M12 13.25C15.1942 13.25 17.7857 10.7305 17.7857 7.625C17.7857 4.51953 15.1942 2 12 2C8.8058 2 6.21429 4.51953 6.21429 7.625C6.21429 10.7305 8.8058 13.25 12 13.25ZM12 3.875C14.1254 3.875 15.8571 5.55859 15.8571 7.625C15.8571 9.69141 14.1254 11.375 12 11.375C9.87455 11.375 8.14286 9.69141 8.14286 7.625C8.14286 5.55859 9.87455 3.875 12 3.875ZM15.6 13.875C14.4469 13.875 13.8924 14.5 12 14.5C10.1076 14.5 9.55714 13.875 8.4 13.875C5.41875 13.875 3 16.2266 3 19.125V20.125C3 21.1602 3.86384 22 4.92857 22H19.0714C20.1362 22 21 21.1602 21 20.125V19.125C21 16.2266 18.5813 13.875 15.6 13.875ZM19.0714 20.125H4.92857V19.125C4.92857 17.2656 6.4875 15.75 8.4 15.75C8.98661 15.75 9.93884 16.375 12 16.375C14.0772 16.375 15.0094 15.75 15.6 15.75C17.5125 15.75 19.0714 17.2656 19.0714 19.125V20.125Z"/>
</svg>
